<svg width="22" height="19" viewBox="0 0 22 19" version="1.1" xmlns="http://www.w3.org/2000/svg" xmlns:xlink="http://www.w3.org/1999/xlink">
<title>Arrow</title>
<desc>Created using Figma</desc>
<g id="Canvas" transform="translate(-435 -69)">
<g id="Arrow">
<use xlink:href="#path0_fill" transform="translate(435.424 69.0887)" fill="#FFFFFF"/>
</g>
</g>
<defs>
<path id="path0_fill" d="M 2.01184 11.0943L 13.7945 11.0948L 10.7183 14.3351C 9.9326 15.1626 9.9326 16.5043 10.7183 17.3315C 11.111 17.7451 11.626 17.9522 12.1408 17.9522C 12.6556 17.9522 13.1706 17.7454 13.5633 17.3315L 20.0718 10.4767C 20.8574 9.64918 20.8574 8.30749 20.0718 7.48026L 13.5587 0.62063C 12.7731 -0.206877 11.4992 -0.206877 10.7135 0.62063C 9.92777 1.44814 9.92777 2.78983 10.7135 3.61734L 13.7897 6.8573L 2.01184 6.85674C 0.900768 6.85674 -8.51366e-07 7.80544 -8.51366e-07 8.97565C 0.000267394 10.1456 0.900768 11.0943 2.01184 11.0943Z"/>
</defs>
</svg>
