<svg width="2172" height="739" viewBox="0 0 2172 739" version="1.1" xmlns="http://www.w3.org/2000/svg" xmlns:xlink="http://www.w3.org/1999/xlink">
<title>background_desktop_discounts</title>
<desc>Created using Figma</desc>
<g id="Canvas" transform="translate(-574 -1669)">
<clipPath id="clip-0" clip-rule="evenodd">
<path d="M 574 1669L 2746 1669L 2746 2408L 574 2408L 574 1669Z" fill="#FFFFFF"/>
</clipPath>
<g id="background_desktop_discounts" clip-path="url(#clip-0)">
<path d="M 574 1669L 2746 1669L 2746 2408L 574 2408L 574 1669Z" fill="#FFFFFF"/>
<g id="Group">
<g id="Sun">
<g id="Group">
<g id="Vector">
<use xlink:href="#path0_fill" transform="matrix(0.575145 -0.818051 0.799208 0.601055 1784 1750.98)" fill="#000000" fill-opacity="0.05"/>
</g>
</g>
</g>
</g>
<g id="Rectangle 4.1">
<use xlink:href="#path1_fill" transform="translate(1396 2270)" fill="#F5F5F5"/>
</g>
<g id="Rectangle 4.2">
<use xlink:href="#path2_fill" transform="translate(419 2270)" fill="#F5F5F5"/>
</g>
</g>
</g>
<defs>
<path id="path0_fill" d="M 17.1786 49.587C 17.1786 47.2409 15.2547 45.3366 12.8839 45.3366L 4.29473 45.3366C 1.92394 45.3366 0 47.2409 0 49.587C 0 51.9333 1.92394 53.8374 4.29473 53.8374L 12.884 53.8374C 15.2547 53.8374 17.1786 51.9333 17.1786 49.587ZM 21.4733 73.6722C 20.288 73.6722 19.2144 74.1483 18.4355 74.9161L 12.7093 80.5833C 11.9334 81.354 11.4525 82.4165 11.4525 83.5896C 11.4525 85.9359 13.3736 87.84 15.7472 87.84C 16.9325 87.84 18.0061 87.3639 18.7821 86.5933L 24.5084 80.9262C 25.2872 80.1584 25.7682 79.0958 25.7682 77.9227C 25.7681 75.5763 23.8469 73.6722 21.4733 73.6722ZM 50.1044 17.0012C 52.478 17.0012 54.3991 15.0971 54.3991 12.7508L 54.3991 4.25038C 54.3991 1.90408 52.478 0 50.1044 0C 47.7308 0 45.8097 1.90408 45.8097 4.25038L 45.8097 12.751C 45.8097 15.0971 47.7308 17.0012 50.1044 17.0012ZM 78.7354 25.502C 79.9208 25.502 80.9944 25.0259 81.7702 24.2581L 87.4965 18.5909C 88.2753 17.8202 88.7562 16.7577 88.7562 15.5846C 88.7562 13.2384 86.8352 11.3342 84.4614 11.3342C 83.2763 11.3342 82.2025 11.8103 81.4237 12.581L 75.6974 18.248C 74.9216 19.016 74.4406 20.0785 74.4406 21.2516C 74.4409 23.5977 76.3619 25.502 78.7354 25.502ZM 18.4355 24.2579C 19.2142 25.0257 20.2879 25.5018 21.4733 25.5018C 23.844 25.5018 25.7681 23.5977 25.7681 21.2514C 25.7681 20.0784 25.287 19.0158 24.5112 18.2451L 18.7849 12.5781C 18.0061 11.8101 16.9325 11.3342 15.7472 11.3342C 13.3766 11.3342 11.4525 13.2383 11.4525 15.5846C 11.4525 16.7577 11.9335 17.8202 12.7093 18.5882L 18.4355 24.2579ZM 95.914 45.3366L 87.3248 45.3366C 84.954 45.3366 83.03 47.2407 83.03 49.587C 83.03 51.9333 84.954 53.8374 87.3248 53.8374L 95.914 53.8374C 98.2848 53.8374 100.209 51.9333 100.209 49.587C 100.209 47.2409 98.2848 45.3366 95.914 45.3366ZM 81.7731 74.9161C 80.9944 74.1483 79.9209 73.6722 78.7354 73.6722C 76.3647 73.6722 74.4407 75.5763 74.4407 77.9226C 74.4407 79.0957 74.9218 80.1582 75.6976 80.926L 81.4239 86.5932C 82.2026 87.3639 83.2763 87.8398 84.4616 87.8398C 86.8324 87.8398 88.7563 85.9357 88.7563 83.5894C 88.7563 82.4165 88.2753 81.3538 87.4995 80.5831L 81.7731 74.9161ZM 50.1044 82.1728C 47.7308 82.1728 45.8097 84.0769 45.8097 86.4232L 45.8097 94.9238C 45.8097 97.2699 47.7308 99.174 50.1044 99.174C 52.478 99.174 54.3991 97.2699 54.3991 94.9236L 54.3991 86.423C 54.3991 84.0769 52.478 82.1728 50.1044 82.1728ZM 50.1044 19.8348C 33.527 19.8348 20.0418 33.1808 20.0418 49.587C 20.0418 65.9932 33.527 79.3392 50.1044 79.3392C 66.6817 79.3392 80.167 65.9932 80.167 49.587C 80.167 33.1808 66.6817 19.8348 50.1044 19.8348ZM 50.1044 70.8386C 38.2626 70.8386 28.6311 61.3067 28.6311 49.587C 28.6311 37.8675 38.2626 28.3354 50.1044 28.3354C 61.9462 28.3354 71.5777 37.8675 71.5777 49.587C 71.5777 61.3066 61.9462 70.8386 50.1044 70.8386Z"/>
<path id="path1_fill" d="M 0 84.4547L 102.462 101.202C 134.074 106.369 166.438 104.473 197.231 95.6512L 411.885 34.1532C 488.462 12.2139 570.523 20.2971 641.348 56.7556L 646.758 59.5409C 693.095 83.3936 746.468 89.7736 797.121 77.5147L 984.195 32.2397C 1031.96 20.6801 1082.23 25.6752 1126.79 46.4077L 1188.89 75.3033C 1235.69 97.0839 1288.73 101.463 1338.48 87.6529L 1350 84.4547L 1350 138L 0 137.483L 0 84.4547Z"/>
<path id="path2_fill" d="M 0 84.4996L 91.952 100.372C 125.228 106.116 159.385 104.014 191.706 94.2353L 385.959 35.4615C 460.951 12.7715 541.907 21.0634 610.743 58.4849C 655.776 82.9662 708.398 89.5174 758.059 76.8248L 924.75 34.2206C 974.818 21.4237 1027.81 26.9153 1074.19 49.707L 1119.31 71.8798C 1168.04 95.8238 1223.97 100.634 1276.06 85.3603L 1279 84.4996L 1279 138.073L 0 137.556L 0 84.4996Z"/>
</defs>
</svg>
