<svg width="960" height="853" viewBox="0 0 960 853" version="1.1" xmlns="http://www.w3.org/2000/svg" xmlns:xlink="http://www.w3.org/1999/xlink">
<title>background_movil_howto</title>
<desc>Created using Figma</desc>
<g id="Canvas" transform="translate(-2856 -750)">
<clipPath id="clip-0" clip-rule="evenodd">
<path d="M 2856 750L 3816 750L 3816 1603L 2856 1603L 2856 750Z" fill="#FFFFFF"/>
</clipPath>
<g id="background_movil_howto" clip-path="url(#clip-0)">
<path d="M 2856 750L 3816 750L 3816 1603L 2856 1603L 2856 750Z" fill="#FFFFFF"/>
<g id="cloud">
<g id="Vector">
<use xlink:href="#path0_fill" transform="translate(2928 819)" fill="#000000" fill-opacity="0.07"/>
</g>
</g>
<g id="cloud">
<g id="Vector">
<use xlink:href="#path1_fill" transform="translate(2817 1135)" fill="#000000" fill-opacity="0.07"/>
</g>
</g>
<g id="cloud">
<g id="Vector">
<use xlink:href="#path1_fill" transform="translate(3086 1217)" fill="#000000" fill-opacity="0.07"/>
</g>
<g id="cloud">
<g id="Vector">
<use xlink:href="#path1_fill" transform="translate(3394 1092)" fill="#000000" fill-opacity="0.07"/>
</g>
</g>
<g id="Vector">
<use xlink:href="#path1_fill" transform="translate(3588 1177)" fill="#000000" fill-opacity="0.07"/>
</g>
</g>
<g id="cloud">
<g id="Vector">
<use xlink:href="#path2_fill" transform="translate(2838 976)" fill="#000000" fill-opacity="0.07"/>
</g>
</g>
<g id="cloud">
<g id="Vector">
<use xlink:href="#path2_fill" transform="translate(3116 1061)" fill="#000000" fill-opacity="0.07"/>
</g>
<g id="cloud">
<g id="Vector">
<use xlink:href="#path2_fill" transform="translate(3478 948)" fill="#000000" fill-opacity="0.07"/>
</g>
<g id="cloud">
<g id="Vector">
<use xlink:href="#path2_fill" transform="translate(3773 1061)" fill="#000000" fill-opacity="0.07"/>
</g>
</g>
</g>
</g>
<g id="cloud">
<g id="Vector">
<use xlink:href="#path3_fill" transform="translate(3096 777)" fill="#000000" fill-opacity="0.07"/>
</g>
</g>
<g id="cloud">
<g id="Vector">
<use xlink:href="#path3_fill" transform="translate(3023 930)" fill="#000000" fill-opacity="0.07"/>
</g>
<g id="cloud">
<g id="Vector">
<use xlink:href="#path3_fill" transform="translate(3327 784)" fill="#000000" fill-opacity="0.07"/>
</g>
<g id="cloud">
<g id="Vector">
<use xlink:href="#path3_fill" transform="translate(3710 777)" fill="#000000" fill-opacity="0.07"/>
</g>
</g>
</g>
</g>
<g id="cloud">
<g id="Vector">
<use xlink:href="#path2_fill" transform="translate(3316 1262)" fill="#000000" fill-opacity="0.07"/>
</g>
</g>
<g id="cloud">
<g id="Vector">
<use xlink:href="#path2_fill" transform="translate(3609 859)" fill="#000000" fill-opacity="0.07"/>
</g>
<g id="cloud">
<g id="Vector">
<use xlink:href="#path2_fill" transform="translate(3304 975)" fill="#000000" fill-opacity="0.07"/>
</g>
</g>
<g id="cloud">
<g id="Vector">
<use xlink:href="#path2_fill" transform="translate(3478 748)" fill="#000000" fill-opacity="0.07"/>
</g>
</g>
</g>
<g id="cloud">
<g id="Vector">
<use xlink:href="#path3_fill" transform="translate(3192 888)" fill="#000000" fill-opacity="0.07"/>
</g>
</g>
<g id="rising-graph">
<g id="Group">
<g id="Vector">
<use xlink:href="#path4_fill" transform="translate(2793 1475)" fill="#F5F5F5"/>
</g>
</g>
</g>
<g id="rising-graph">
<g id="Group">
<g id="Vector">
<use xlink:href="#path4_fill" transform="translate(3128 1476)" fill="#F5F5F5"/>
</g>
</g>
</g>
<g id="Group">
<g id="Vector">
<use xlink:href="#path4_fill" transform="matrix(-1 0 0 1 3317 1475)" fill="#F5F5F5"/>
</g>
</g>
<g id="Group">
<g id="Vector">
<use xlink:href="#path4_fill" transform="matrix(-1 0 0 1 3652 1475)" fill="#F5F5F5"/>
</g>
</g>
<g id="rising-graph">
<g id="Group">
<g id="Vector">
<use xlink:href="#path4_fill" transform="translate(3554 1475)" fill="#F5F5F5"/>
</g>
</g>
</g>
<g id="Rectangle">
<use xlink:href="#path5_fill" transform="translate(2838 1575)" fill="#F5F5F5"/>
</g>
</g>
</g>
<defs>
<path id="path0_fill" d="M 68.8176 21.8619C 68.1035 9.7119 58.0878 0 46.0147 0C 38.6842 0 31.5859 3.59505 27.1877 9.4608C 27.0864 9.40815 26.9797 9.3717 26.8772 9.3231C 26.6098 9.1935 26.3385 9.07065 26.0618 8.95995C 25.9079 8.8992 25.754 8.84385 25.5987 8.78985C 25.3246 8.694 25.0466 8.60895 24.7631 8.532C 24.6078 8.49015 24.4539 8.44695 24.2973 8.41185C 23.9935 8.343 23.6831 8.29035 23.3699 8.2431C 23.2335 8.22285 23.0999 8.19585 22.9622 8.181C 22.514 8.13105 22.0604 8.1 21.6 8.1C 14.9 8.1 9.45 13.55 9.45 20.25C 9.45 20.4214 9.4608 20.5902 9.4716 20.759L 9.4716 20.7644C 3.85695 23.8262 0 30.2386 0 36.6579C 0 46.2199 7.7787 54 17.3407 54L 50.4266 54C 50.567 54 50.706 53.9919 50.8464 53.9811L 50.9301 53.9703L 51.111 53.9811C 51.2487 53.9919 51.3864 54 51.5281 54L 64.7622 54C 73.7154 54 81 46.7154 81 37.7622C 81 30.3521 75.8335 23.706 68.8176 21.8619ZM 64.7622 51.3L 51.5281 51.3C 51.4485 51.3 51.3715 51.2933 51.2932 51.2879L 50.9274 51.273L 50.6601 51.2879C 50.5832 51.2933 50.5049 51.3 50.4266 51.3L 17.3407 51.3C 9.26775 51.3 2.7 44.7323 2.7 36.6579C 2.7 31.05 6.35175 25.2288 11.3845 22.8163L 12.15 22.4505L 12.15 21.6C 12.15 21.4286 12.1608 21.2544 12.1703 21.0789L 12.1824 20.8629L 12.1662 20.5794C 12.1581 20.47 12.15 20.3607 12.15 20.25C 12.15 15.0403 16.3904 10.8 21.6 10.8C 22.0172 10.8 22.4289 10.8364 22.8379 10.8904C 22.9433 10.9039 23.0485 10.9215 23.1525 10.9391C 23.5129 10.9985 23.868 11.0768 24.2176 11.178C 24.2649 11.1915 24.3135 11.2009 24.3608 11.2144C 24.7455 11.3319 25.1208 11.4804 25.488 11.6478C 25.5838 11.691 25.677 11.7382 25.7715 11.7842C 26.0955 11.9448 26.4128 12.1203 26.7192 12.3188C 29.3207 14.0035 31.05 16.9263 31.05 20.25C 31.05 20.9965 31.6535 21.6 32.4 21.6C 33.1465 21.6 33.75 20.9965 33.75 20.25C 33.75 16.5321 32.0679 13.2043 29.43 10.9741C 33.3004 5.91165 39.6738 2.7 46.0147 2.7C 56.4705 2.7 65.1537 10.9823 66.0595 21.4488C 64.6798 21.3516 62.6143 21.3016 60.5475 21.6162C 59.8104 21.7282 59.3041 22.4167 59.4162 23.1538C 59.5175 23.8221 60.0926 24.3013 60.7486 24.3013C 60.8162 24.3013 60.885 24.2959 60.9525 24.2852C 63.959 23.8302 67.0923 24.2568 67.2759 24.2824C 73.5615 25.4772 78.3 31.2674 78.3 37.7622C 78.3 45.2263 72.2263 51.3 64.7622 51.3Z"/>
<path id="path1_fill" d="M 107.899 34.4123C 106.779 15.2873 91.0759 0 72.1466 0C 60.6531 0 49.5237 5.65887 42.6275 14.892C 42.4688 14.8091 42.3016 14.7517 42.1407 14.6753C 41.7216 14.4713 41.2962 14.2779 40.8623 14.1036C 40.6209 14.008 40.3797 13.9209 40.1362 13.8359C 39.7066 13.685 39.2705 13.5511 38.826 13.43C 38.5826 13.3641 38.3413 13.2961 38.0958 13.2409C 37.6195 13.1325 37.1327 13.0496 36.6416 12.9753C 36.4278 12.9434 36.2183 12.9009 36.0024 12.8775C 35.2997 12.7989 34.5885 12.75 33.8667 12.75C 23.3617 12.75 14.8167 21.3286 14.8167 31.875C 14.8167 32.1449 14.8336 32.4105 14.8505 32.6761L 14.8505 32.6846C 6.04732 37.5041 0 47.5979 0 57.7022C 0 72.7536 12.1962 85 27.1886 85L 79.0639 85C 79.284 85 79.502 84.9873 79.7221 84.9703L 79.8534 84.9533L 80.137 84.9703C 80.3529 84.9873 80.5688 85 80.791 85L 101.541 85C 115.578 85 127 73.5335 127 59.4405C 127 47.7764 118.9 37.315 107.899 34.4123ZM 101.541 80.75L 80.791 80.75C 80.6662 80.75 80.5455 80.7394 80.4227 80.7309L 79.8491 80.7075L 79.43 80.7309C 79.3094 80.7394 79.1866 80.75 79.0639 80.75L 27.1886 80.75C 14.5309 80.75 4.23333 70.4119 4.23333 57.7022C 4.23333 48.875 9.95892 39.712 17.8498 35.9146L 19.05 35.3387L 19.05 34C 19.05 33.7301 19.0669 33.456 19.0818 33.1798L 19.1008 32.8398L 19.0754 32.3935C 19.0627 32.2214 19.05 32.0493 19.05 31.875C 19.05 23.6746 25.6985 17 33.8667 17C 34.5207 17 35.1663 17.0574 35.8076 17.1424C 35.9727 17.1636 36.1378 17.1913 36.3008 17.2189C 36.866 17.3124 37.4227 17.4356 37.9709 17.595C 38.045 17.6163 38.1212 17.6311 38.1953 17.6524C 38.7985 17.8372 39.3869 18.071 39.9627 18.3345C 40.1129 18.4025 40.259 18.4769 40.4072 18.5491C 40.9152 18.802 41.4126 19.0783 41.8931 19.3906C 45.9719 22.0426 48.6833 26.6432 48.6833 31.875C 48.6833 33.0501 49.6295 34 50.8 34C 51.9705 34 52.9167 33.0501 52.9167 31.875C 52.9167 26.0228 50.2793 20.7846 46.1433 17.2741C 52.2118 9.30537 62.2046 4.25 72.1466 4.25C 88.5402 4.25 102.155 17.2869 103.575 33.762C 101.412 33.609 98.1731 33.5304 94.9325 34.0255C 93.7768 34.2019 92.9831 35.2856 93.1587 36.4459C 93.3175 37.4977 94.2192 38.2521 95.2479 38.2521C 95.3537 38.2521 95.4617 38.2436 95.5675 38.2266C 100.281 37.5105 105.194 38.182 105.482 38.2224C 115.337 40.103 122.767 49.2171 122.767 59.4405C 122.767 71.1896 113.244 80.75 101.541 80.75Z"/>
<path id="path2_fill" d="M 73.0656 23.0765C 72.3074 10.2515 61.6735 0 48.8552 0C 41.0722 0 33.5357 3.79477 28.8659 9.9864C 28.7584 9.93082 28.6452 9.89235 28.5362 9.84105C 28.2524 9.70425 27.9643 9.57457 27.6705 9.45772C 27.5071 9.3936 27.3437 9.33517 27.1789 9.27817C 26.8879 9.177 26.5926 9.08722 26.2916 9.006C 26.1268 8.96182 25.9634 8.91623 25.7971 8.87918C 25.4746 8.8065 25.145 8.75093 24.8124 8.70105C 24.6677 8.67968 24.5258 8.65117 24.3796 8.6355C 23.9037 8.58277 23.4221 8.55 22.9333 8.55C 15.8197 8.55 10.0333 14.3027 10.0333 21.375C 10.0333 21.556 10.0448 21.7341 10.0563 21.9122L 10.0563 21.9179C 4.09503 25.1498 0 31.9186 0 38.6945C 0 48.7877 8.25887 57 18.4112 57L 53.5393 57C 53.6884 57 53.836 56.9915 53.9851 56.98L 54.0739 56.9687L 54.266 56.98C 54.4122 56.9915 54.5584 57 54.7089 57L 68.7599 57C 78.2657 57 86 49.3107 86 39.8601C 86 32.0383 80.5146 25.023 73.0656 23.0765ZM 68.7599 54.15L 54.7089 54.15C 54.6243 54.15 54.5426 54.1429 54.4595 54.1372L 54.0711 54.1215L 53.7873 54.1372C 53.7056 54.1429 53.6224 54.15 53.5393 54.15L 18.4112 54.15C 9.83983 54.15 2.86667 47.2174 2.86667 38.6945C 2.86667 32.775 6.74383 26.6304 12.0873 24.0839L 12.9 23.6977L 12.9 22.8C 12.9 22.619 12.9115 22.4352 12.9215 22.25L 12.9344 22.0219L 12.9172 21.7227C 12.9086 21.6073 12.9 21.4918 12.9 21.375C 12.9 15.8759 17.4021 11.4 22.9333 11.4C 23.3762 11.4 23.8134 11.4385 24.2477 11.4955C 24.3595 11.5097 24.4713 11.5283 24.5817 11.5468C 24.9644 11.6095 25.3413 11.6921 25.7126 11.799C 25.7627 11.8133 25.8143 11.8232 25.8645 11.8375C 26.273 11.9614 26.6715 12.1182 27.0613 12.2949C 27.1631 12.3405 27.262 12.3904 27.3623 12.4388C 27.7063 12.6084 28.0432 12.7936 28.3685 13.0031C 31.1306 14.7815 32.9667 17.8666 32.9667 21.375C 32.9667 22.163 33.6074 22.8 34.4 22.8C 35.1926 22.8 35.8333 22.163 35.8333 21.375C 35.8333 17.4506 34.0474 13.9379 31.2467 11.5838C 35.356 6.24007 42.1228 2.85 48.8552 2.85C 59.9563 2.85 69.1755 11.5924 70.1373 22.6404C 68.6724 22.5378 66.4794 22.4851 64.285 22.8171C 63.5024 22.9354 62.9649 23.6621 63.0839 24.4402C 63.1914 25.1455 63.802 25.6514 64.4986 25.6514C 64.5702 25.6514 64.6433 25.6457 64.715 25.6343C 67.907 25.1541 71.2338 25.6044 71.4287 25.6315C 78.1023 26.8926 83.1333 33.0044 83.1333 39.8601C 83.1333 47.7389 76.6848 54.15 68.7599 54.15Z"/>
<path id="path3_fill" d="M 53.5248 17.0037C 52.9694 7.5537 45.1794 0 35.7892 0C 30.0877 0 24.5669 2.79615 21.146 7.3584C 21.0672 7.31745 20.9843 7.2891 20.9044 7.2513C 20.6966 7.1505 20.4855 7.05495 20.2703 6.96885C 20.1506 6.9216 20.0308 6.87855 19.9101 6.83655C 19.6969 6.762 19.4806 6.69585 19.2602 6.636C 19.1394 6.60345 19.0197 6.56985 18.8979 6.54255C 18.6616 6.489 18.4202 6.44805 18.1766 6.4113C 18.0705 6.39555 17.9666 6.37455 17.8595 6.363C 17.5109 6.32415 17.1581 6.3 16.8 6.3C 11.5889 6.3 7.35 10.5388 7.35 15.75C 7.35 15.8834 7.3584 16.0146 7.3668 16.1459L 7.3668 16.1501C 2.99985 18.5315 0 23.5189 0 28.5117C 0 35.9488 6.0501 42 13.4873 42L 39.2206 42C 39.3298 42 39.438 41.9937 39.5472 41.9853L 39.6123 41.9769L 39.753 41.9853C 39.8601 41.9937 39.9672 42 40.0774 42L 50.3706 42C 57.3342 42 63 36.3342 63 29.3706C 63 23.6072 58.9817 18.438 53.5248 17.0037ZM 50.3706 39.9L 40.0774 39.9C 40.0155 39.9 39.9557 39.8948 39.8947 39.8906L 39.6102 39.879L 39.4023 39.8906C 39.3424 39.8948 39.2816 39.9 39.2206 39.9L 13.4873 39.9C 7.20825 39.9 2.1 34.7917 2.1 28.5117C 2.1 24.15 4.94025 19.6224 8.85465 17.746L 9.45 17.4615L 9.45 16.8C 9.45 16.6667 9.4584 16.5312 9.46575 16.3947L 9.4752 16.2267L 9.4626 16.0062C 9.4563 15.9211 9.45 15.8361 9.45 15.75C 9.45 11.6981 12.748 8.4 16.8 8.4C 17.1245 8.4 17.4447 8.42835 17.7628 8.47035C 17.8447 8.48085 17.9266 8.4945 18.0075 8.50815C 18.2878 8.55435 18.564 8.61525 18.8359 8.694C 18.8727 8.7045 18.9105 8.71185 18.9473 8.72235C 19.2465 8.8137 19.5384 8.9292 19.824 9.0594C 19.8986 9.093 19.971 9.12975 20.0445 9.16545C 20.2965 9.2904 20.5432 9.4269 20.7816 9.58125C 22.805 10.8917 24.15 13.1649 24.15 15.75C 24.15 16.3307 24.6194 16.8 25.2 16.8C 25.7806 16.8 26.25 16.3307 26.25 15.75C 26.25 12.8583 24.9417 10.2701 22.89 8.53545C 25.9003 4.59795 30.8574 2.1 35.7892 2.1C 43.9215 2.1 50.6751 8.54175 51.3797 16.6824C 50.3065 16.6068 48.7 16.5679 47.0925 16.8126C 46.5192 16.8997 46.1255 17.4352 46.2126 18.0085C 46.2914 18.5283 46.7387 18.901 47.249 18.901C 47.3014 18.901 47.355 18.8969 47.4075 18.8885C 49.7459 18.5346 52.1829 18.8664 52.3257 18.8863C 57.2145 19.8156 60.9 24.319 60.9 29.3706C 60.9 35.176 56.176 39.9 50.3706 39.9Z"/>
<path id="path4_fill" d="M 257.829 1.195L 195.949 49.5347C 193.658 51.3283 189.159 51.6193 185.961 50.1834L 156.032 36.7475C 152.832 35.3116 148.225 35.5693 145.803 37.3232L 103.792 67.7103C 101.37 69.4629 96.7316 69.7385 93.4913 68.3231L 73.9216 59.7654C 70.6813 58.3501 65.7835 58.5321 63.0405 60.1718L 1.42513 97.0167C -1.32052 98.6564 0.0242338 100 4.4007 100L 262 100L 262 1.76166C 262 -0.342183 260.121 -0.599874 257.829 1.195Z"/>
<path id="path5_fill" d="M 0 0L 978 0L 978 56L 0 56L 0 0Z"/>
</defs>
</svg>
