<svg width="2172" height="636" viewBox="0 0 2172 636" version="1.1" xmlns="http://www.w3.org/2000/svg" xmlns:xlink="http://www.w3.org/1999/xlink">
<title>background_desktop_howto</title>
<desc>Created using Figma</desc>
<g id="Canvas" transform="translate(-574 -967)">
<clipPath id="clip-0" clip-rule="evenodd">
<path d="M 574 967L 2746 967L 2746 1603L 574 1603L 574 967Z" fill="#FFFFFF"/>
</clipPath>
<g id="background_desktop_howto" clip-path="url(#clip-0)">
<path d="M 574 967L 2746 967L 2746 1603L 574 1603L 574 967Z" fill="#FFFFFF"/>
<g id="cluds">
<g id="cloud">
<g id="Vector">
<use xlink:href="#path0_fill" transform="translate(1176 1147)" fill="#000000" fill-opacity="0.07"/>
</g>
</g>
<g id="cloud">
<g id="Vector">
<use xlink:href="#path0_fill" transform="translate(721 1057)" fill="#000000" fill-opacity="0.07"/>
</g>
</g>
<g id="cloud">
<g id="Vector">
<use xlink:href="#path0_fill" transform="translate(1592 1012)" fill="#000000" fill-opacity="0.07"/>
</g>
</g>
</g>
<g id="cluds">
<g id="cloud">
<g id="Vector">
<use xlink:href="#path0_fill" transform="translate(1879 1285)" fill="#000000" fill-opacity="0.07"/>
</g>
</g>
<g id="cloud">
<g id="Vector">
<use xlink:href="#path0_fill" transform="translate(2272 1035)" fill="#000000" fill-opacity="0.07"/>
</g>
</g>
<g id="cloud">
<g id="Vector">
<use xlink:href="#path0_fill" transform="translate(2537 1125)" fill="#000000" fill-opacity="0.07"/>
</g>
</g>
</g>
<g id="Group">
<g id="rising-graph">
<g id="Group">
<g id="Vector">
<use xlink:href="#path1_fill" transform="translate(740 1457)" fill="#F5F5F5"/>
</g>
</g>
</g>
<g id="rising-graph">
<g id="Group">
<g id="Vector">
<use xlink:href="#path1_fill" transform="matrix(-1 0 0 1 1264 1457)" fill="#F5F5F5"/>
</g>
</g>
</g>
<g id="Group">
<g id="Vector">
<use xlink:href="#path1_fill" transform="matrix(-1 0 0 1 2632 1478)" fill="#F5F5F5"/>
</g>
</g>
<g id="Group">
<g id="Vector">
<use xlink:href="#path1_fill" transform="matrix(-1 0 0 1 841 1457)" fill="#F5F5F5"/>
</g>
</g>
<g id="rising-graph">
<g id="Group">
<g id="Vector">
<use xlink:href="#path1_fill" transform="translate(2108 1478)" fill="#F5F5F5"/>
</g>
</g>
</g>
<g id="Group">
<g id="Vector">
<use xlink:href="#path2_fill" transform="matrix(-1 0 0 1 2151 1506.8)" fill="#F5F5F5"/>
</g>
</g>
</g>
<g id="Group">
<g id="rising-graph">
<g id="Group">
<g id="Vector">
<use xlink:href="#path1_fill" transform="matrix(-1 0 0 1 1592 1475)" fill="#F5F5F5"/>
</g>
</g>
</g>
<g id="rising-graph">
<g id="Group">
<g id="Vector">
<use xlink:href="#path1_fill" transform="matrix(-1 0 0 1 2053 1475)" fill="#F5F5F5"/>
</g>
</g>
</g>
<g id="rising-graph">
<g id="Group">
<g id="Vector">
<use xlink:href="#path1_fill" transform="translate(1068 1475)" fill="#F5F5F5"/>
</g>
</g>
</g>
<g id="rising-graph">
<g id="Group">
<g id="Vector">
<use xlink:href="#path1_fill" transform="matrix(-1 0 0 1 2184 1475)" fill="#F5F5F5"/>
</g>
</g>
</g>
<g id="rising-graph">
<g id="Group">
<g id="Vector">
<use xlink:href="#path1_fill" transform="translate(1660 1475)" fill="#F5F5F5"/>
</g>
</g>
</g>
<g id="Group">
<g id="Vector">
<use xlink:href="#path1_fill" transform="translate(1529 1475)" fill="#F5F5F5"/>
</g>
</g>
</g>
<g id="rising-graph">
<g id="Group">
<g id="Vector">
<use xlink:href="#path1_fill" transform="translate(2537 1478)" fill="#F5F5F5"/>
</g>
</g>
</g>
</g>
</g>
<defs>
<path id="path0_fill" d="M 114.696 36.4365C 113.506 16.1865 96.813 0 76.6912 0C 64.4737 0 52.6432 5.99175 45.3127 15.768C 45.144 15.6802 44.9663 15.6195 44.7953 15.5385C 44.3498 15.3225 43.8975 15.1177 43.4363 14.9332C 43.1798 14.832 42.9232 14.7397 42.6645 14.6497C 42.2077 14.49 41.7443 14.3482 41.2718 14.22C 41.013 14.1502 40.7565 14.0783 40.4955 14.0198C 39.9892 13.905 39.4718 13.8173 38.9498 13.7385C 38.7225 13.7048 38.4998 13.6597 38.2703 13.635C 37.5233 13.5517 36.7672 13.5 36 13.5C 24.8333 13.5 15.75 22.5833 15.75 33.75C 15.75 34.0358 15.768 34.317 15.786 34.5983L 15.786 34.6073C 6.42825 39.7103 0 50.3977 0 61.0965C 0 77.0332 12.9645 90 28.9013 90L 84.0443 90C 84.2783 90 84.51 89.9865 84.744 89.9685L 84.8835 89.9505L 85.185 89.9685C 85.4145 89.9865 85.644 90 85.8802 90L 107.937 90C 122.859 90 135 77.859 135 62.937C 135 50.5868 126.389 39.51 114.696 36.4365ZM 107.937 85.5L 85.8802 85.5C 85.7475 85.5 85.6192 85.4888 85.4887 85.4798L 84.879 85.455L 84.4335 85.4798C 84.3053 85.4888 84.1748 85.5 84.0443 85.5L 28.9013 85.5C 15.4463 85.5 4.5 74.5537 4.5 61.0965C 4.5 51.75 10.5862 42.048 18.9742 38.0272L 20.25 37.4175L 20.25 36C 20.25 35.7142 20.268 35.424 20.2838 35.1315L 20.304 34.7715L 20.277 34.299C 20.2635 34.1167 20.25 33.9345 20.25 33.75C 20.25 25.0673 27.3173 18 36 18C 36.6952 18 37.3815 18.0607 38.0632 18.1507C 38.2387 18.1732 38.4142 18.2025 38.5875 18.2318C 39.1882 18.3308 39.78 18.4613 40.3627 18.63C 40.4415 18.6525 40.5225 18.6682 40.6013 18.6907C 41.2425 18.8865 41.868 19.134 42.48 19.413C 42.6397 19.485 42.795 19.5638 42.9525 19.6403C 43.4925 19.908 44.0212 20.2005 44.532 20.5312C 48.8677 23.3393 51.75 28.2105 51.75 33.75C 51.75 34.9942 52.7558 36 54 36C 55.2442 36 56.25 34.9942 56.25 33.75C 56.25 27.5535 53.4465 22.0072 49.05 18.2902C 55.5007 9.85275 66.123 4.5 76.6912 4.5C 94.1175 4.5 108.589 18.3038 110.099 35.748C 107.8 35.586 104.357 35.5027 100.912 36.027C 99.684 36.2137 98.8403 37.3612 99.027 38.5897C 99.1958 39.7035 100.154 40.5022 101.248 40.5022C 101.36 40.5022 101.475 40.4933 101.588 40.4753C 106.598 39.717 111.82 40.428 112.126 40.4707C 122.602 42.462 130.5 52.1123 130.5 62.937C 130.5 75.3772 120.377 85.5 107.937 85.5Z"/>
<path id="path1_fill" d="M 257.829 1.74469L 195.949 72.3206C 193.658 74.9393 189.159 75.3642 185.961 73.2678L 156.032 53.6514C 152.832 51.555 148.225 51.9312 145.803 54.4918L 103.792 98.857C 101.37 101.416 96.7316 101.818 93.4913 99.7518L 73.9216 87.2575C 70.6813 85.1911 65.7835 85.4569 63.0405 87.8509L 1.42513 141.644C -1.32052 144.038 0.0242338 146 4.4007 146L 262 146L 262 2.57202C 262 -0.499587 260.121 -0.875816 257.829 1.74469Z"/>
<path id="path2_fill" d="M 240.5 0.201135L 195.949 45.5217C 193.658 48.1404 189.159 48.5653 185.961 46.4689L 156.032 26.8525C 152.832 24.7561 148.225 25.1323 145.803 27.6929L 103.792 72.0581C 101.37 74.6169 96.7316 75.0193 93.4913 72.9529L 73.9216 60.4586C 70.6813 58.3922 65.7835 58.658 63.0405 61.052L 1.42513 114.845C -1.32052 117.239 0.0242333 119.201 4.4007 119.201L 262 119.201L 254.5 10.701C 233 21.629 242.791 -2.41937 240.5 0.201135Z"/>
</defs>
</svg>
