<svg width="960" height="1962" viewBox="0 0 960 1962" version="1.1" xmlns="http://www.w3.org/2000/svg" xmlns:xlink="http://www.w3.org/1999/xlink">
<title>background_movil_discounts</title>
<desc>Created using Figma</desc>
<g id="Canvas" transform="translate(-2856 -1669)">
<clipPath id="clip-0" clip-rule="evenodd">
<path d="M 2856 1669L 3816 1669L 3816 3630.9L 2856 3630.9L 2856 1669Z" fill="#FFFFFF"/>
</clipPath>
<g id="background_movil_discounts" clip-path="url(#clip-0)">
<path d="M 2856 1669L 3816 1669L 3816 3630.9L 2856 3630.9L 2856 1669Z" fill="#FFFFFF"/>
<g id="Rectangle 4.3">
<use xlink:href="#path0_fill" transform="translate(2689 3546)" fill="#F5F5F5"/>
</g>
<g id="Rectangle 4.4">
<use xlink:href="#path0_fill" transform="translate(3339 3546)" fill="#F5F5F5"/>
</g>
<g id="Rectangle 4.1">
<use xlink:href="#path1_fill" transform="translate(3112 3584)" fill="#F5F5F5"/>
</g>
<g id="Group">
<g id="Sun">
<g id="Group">
<g id="Vector">
<use xlink:href="#path2_fill" transform="matrix(0.575145 -0.818051 0.799208 0.601055 3232 1803.41)" fill="#000000" fill-opacity="0.05"/>
</g>
</g>
</g>
</g>
</g>
</g>
<defs>
<path id="path0_fill" d="M 0 52.0192L 18.268 55.8745C 53.2277 63.2525 89.5615 60.5895 123.072 48.1933L 192.294 22.5867C 230.661 8.39383 273.5 13.3922 307.569 36.0367C 329.853 50.8479 357.629 54.8152 383.168 46.8345L 452.125 25.2864C 485.561 14.838 521.869 19.1818 551.897 37.2228L 563.254 44.0462C 587.611 58.6803 617.251 61.607 644 52.0192L 644 85L 0 84.6816L 0 52.0192Z"/>
<path id="path1_fill" d="M 0 28.7636L 39.3459 33.2641C 61.7963 35.8321 84.51 34.8778 106.666 30.4356L 200.939 11.534C 238.573 3.98846 277.553 6.87635 313.664 19.8853C 337.298 28.3992 362.729 30.6686 387.497 26.4737L 464.851 13.3724C 497.712 7.80667 531.433 10.2902 563.124 20.6102L 572.121 23.54C 599.512 32.4594 628.722 34.2571 657 28.7636L 657 47L 0 46.824L 0 28.7636Z"/>
<path id="path2_fill" d="M 30.8905 89.1671C 30.8905 84.9482 27.4308 81.524 23.1677 81.524L 7.72276 81.524C 3.45962 81.524 0 84.9482 0 89.1671C 0 93.3862 3.45962 96.8101 7.72276 96.8101L 23.168 96.8101C 27.4308 96.8101 30.8905 93.3862 30.8905 89.1671ZM 38.6132 132.477C 36.4818 132.477 34.5512 133.333 33.1505 134.714L 22.8538 144.904C 21.4585 146.29 20.5937 148.201 20.5937 150.31C 20.5937 154.529 24.0484 157.953 28.3165 157.953C 30.4479 157.953 32.3785 157.097 33.7739 155.712L 44.0709 145.521C 45.4712 144.14 46.3363 142.23 46.3363 140.12C 46.336 135.901 42.8814 132.477 38.6132 132.477ZM 90.0974 30.5715C 94.3655 30.5715 97.8202 27.1476 97.8202 22.9285L 97.8202 7.64302C 97.8202 3.4239 94.3655 0 90.0974 0C 85.8293 0 82.3746 3.4239 82.3746 7.64302L 82.3746 22.9288C 82.3746 27.1476 85.8293 30.5715 90.0974 30.5715ZM 141.582 45.8575C 143.713 45.8575 145.644 45.0014 147.039 43.6208L 157.336 33.4301C 158.736 32.0442 159.601 30.1335 159.601 28.0241C 159.601 23.8053 156.146 20.3811 151.878 20.3811C 149.747 20.3811 147.816 21.2372 146.416 22.6231L 136.119 32.8135C 134.724 34.1944 133.859 36.1051 133.859 38.2145C 133.859 42.4333 137.313 45.8575 141.582 45.8575ZM 33.1505 43.6205C 34.5509 45.0011 36.4815 45.8572 38.6132 45.8572C 42.8761 45.8572 46.336 42.4333 46.336 38.2142C 46.336 36.1048 45.4709 34.1941 44.0759 32.8082L 33.7789 22.6178C 32.3785 21.2369 30.4479 20.3811 28.3165 20.3811C 24.0536 20.3811 20.5937 23.805 20.5937 28.0241C 20.5937 30.1335 21.4588 32.0442 22.8538 33.4251L 33.1505 43.6205ZM 172.472 81.524L 157.027 81.524C 152.764 81.524 149.304 84.9479 149.304 89.1671C 149.304 93.3862 152.764 96.8101 157.027 96.8101L 172.472 96.8101C 176.735 96.8101 180.195 93.3862 180.195 89.1671C 180.195 84.9482 176.735 81.524 172.472 81.524ZM 147.044 134.714C 145.644 133.333 143.713 132.477 141.582 132.477C 137.318 132.477 133.859 135.901 133.859 140.12C 133.859 142.229 134.724 144.14 136.119 145.521L 146.416 155.711C 147.816 157.097 149.747 157.953 151.878 157.953C 156.141 157.953 159.601 154.529 159.601 150.31C 159.601 148.201 158.736 146.29 157.341 144.904L 147.044 134.714ZM 90.0974 147.763C 85.8293 147.763 82.3746 151.187 82.3746 155.406L 82.3746 170.691C 82.3746 174.91 85.8293 178.334 90.0974 178.334C 94.3655 178.334 97.8202 174.91 97.8202 170.691L 97.8202 155.405C 97.8202 151.187 94.3655 147.763 90.0974 147.763ZM 90.0974 35.6668C 60.2881 35.6668 36.039 59.6656 36.039 89.1671C 36.039 118.669 60.2881 142.667 90.0974 142.667C 119.907 142.667 144.156 118.669 144.156 89.1671C 144.156 59.6656 119.907 35.6668 90.0974 35.6668ZM 90.0974 127.382C 68.8035 127.382 51.4842 110.241 51.4842 89.1671C 51.4842 68.093 68.8035 50.9526 90.0974 50.9526C 111.391 50.9526 128.711 68.093 128.711 89.1671C 128.711 110.241 111.391 127.382 90.0974 127.382Z"/>
</defs>
</svg>
