<svg width="1279" height="734" viewBox="0 0 1279 734" version="1.1" xmlns="http://www.w3.org/2000/svg" xmlns:xlink="http://www.w3.org/1999/xlink">
<title>enjoydiscounts</title>
<desc>Created using Figma</desc>
<g id="Canvas" transform="translate(705 -1673)">
<g id="enjoydiscounts">
<g id="Rectangle 4">
<use xlink:href="#path0_fill" transform="translate(-705 2268.93)" fill="#302F2F" fill-opacity="0.05"/>
</g>
<g id="Intersect">
<use xlink:href="#path1_fill" transform="translate(511.312 1673)" fill="#000000" fill-opacity="0.05"/>
</g>
</g>
</g>
<defs>
<path id="path0_fill" d="M 0 84.4996L 91.952 100.372C 125.228 106.116 159.385 104.014 191.706 94.2353L 385.959 35.4615C 460.951 12.7715 541.907 21.0634 610.743 58.4849L 610.743 58.4849C 655.776 82.9662 708.398 89.5174 758.059 76.8248L 924.75 34.2206C 974.818 21.4237 1027.81 26.9153 1074.19 49.707L 1119.31 71.8798C 1168.04 95.8238 1223.97 100.634 1276.06 85.3603L 1279 84.4996L 1279 138.073L 0 137.556L 0 84.4996Z"/>
<path id="path1_fill" fill-rule="evenodd" d="M 63.6875 25.3873C 51.1733 19.2705 35.7893 23.0112 27.357 35.0048C 17.8226 48.5659 20.7329 67.6193 33.8448 77.4802C 42.822 84.2317 54.2885 84.9497 63.6875 80.3789L 63.6875 70.3028C 56.5095 75.8309 46.3957 76.1775 38.7849 70.4537C 29.4185 63.4097 27.34 49.8013 34.1507 40.1141C 40.9615 30.4269 54.1191 28.2771 63.4855 35.3212C 63.5532 35.3721 63.6205 35.4233 63.6875 35.475L 63.6875 25.3873ZM 26.331 80.781C 27.6946 78.8417 30.323 78.4123 32.1981 79.8225C 34.0732 81.2327 34.4885 83.951 33.125 85.8904L 28.1849 92.9169C 26.8214 94.8563 24.1931 95.2856 22.3179 93.8755C 20.4428 92.4653 20.0275 89.7468 21.391 87.8074L 26.331 80.781ZM 53.1641 94.0184C 52.9985 92.9198 53.2355 91.7554 53.9172 90.7856C 55.2824 88.844 57.9091 88.4169 59.7845 89.827C 60.722 90.5321 61.2945 91.5643 61.4603 92.6628L 62.696 100.754C 62.8656 101.851 62.6286 103.016 61.9468 103.986C 60.5817 105.927 57.955 106.354 56.0798 104.944C 55.1423 104.239 54.5697 103.207 54.4 102.109L 53.1641 94.0184ZM 24.1655 27.2336C 26.0407 28.6439 26.4575 31.36 25.0924 33.3016C 23.7272 35.2433 21.1005 35.6705 19.2255 34.2604L 12.4317 29.151C 10.5565 27.7407 10.1397 25.0247 11.5048 23.083C 12.87 21.1412 15.4967 20.7141 17.3719 22.1244L 24.1655 27.2336ZM 49.1046 11.7591C 49.272 12.8552 49.035 14.0198 48.3533 14.9894C 46.9881 16.931 44.3614 17.358 42.4861 15.9481C 41.5486 15.243 40.9761 14.2108 40.8085 13.1146L 39.5729 5.02404C 39.4048 3.9237 39.6419 2.75915 40.3235 1.78967C 41.6888 -0.152229 44.3155 -0.579109 46.1906 0.831047C 47.1281 1.53613 47.7007 2.56811 47.8688 3.66845L 49.1046 11.7591ZM 15.4191 61.8326C 14.7372 62.8024 13.7393 63.3945 12.6777 63.5701L 4.85303 64.8466C 3.7931 65.0196 2.66718 64.7745 1.72968 64.0695C -0.145503 62.6592 -0.560603 59.9407 0.802861 58.0013C 1.48456 57.0317 2.48243 56.4396 3.54407 56.264L 11.3666 54.9858C 12.4288 54.8144 13.5547 55.0596 14.4923 55.7646C 16.3674 57.1748 16.7825 59.8933 15.4191 61.8326Z"/>
</defs>
</svg>
