<svg width="58" height="39" viewBox="0 0 58 39" version="1.1" xmlns="http://www.w3.org/2000/svg" xmlns:xlink="http://www.w3.org/1999/xlink">
<title>Group</title>
<desc>Created using Figma</desc>
<g id="Canvas" transform="translate(62 -2697)">
<g id="Group">
<g id="Vector">
<use xlink:href="#path0_fill" transform="translate(-61.1679 2697.85)" fill="#FFFFFF"/>
</g>
</g>
</g>
<defs>
<path id="path0_fill" d="M 24.2437 17.0003L 19.9608 17.0003L 19.9608 11.4253L 24.2437 11.4253L 24.2437 12.5867L 21.2425 12.5867L 21.2425 13.5911L 24.1727 13.5911L 24.1727 14.7338L 21.2425 14.7338L 21.2425 15.8473L 24.2437 15.8473L 24.2437 17.0003ZM 14.6992 17.0003L 12.8367 12.6313L 12.8367 17.0014L 10.2273 17.0014L 9.73446 15.758L 7.06516 15.758L 6.56729 17.0014L 5.17465 17.0014L 7.47105 11.4264L 9.37455 11.4264L 11.557 16.7053L 11.557 11.4264L 13.6504 11.4264L 15.329 15.2085L 16.8696 11.4264L 19.007 11.4264L 19.007 17.0014L 17.6924 17.0014L 17.6874 12.6355L 15.8279 17.0014L 14.6992 17.0003ZM 9.27058 14.5956L 8.39381 12.3737L 7.52204 14.5956L 9.27058 14.5956ZM 30.0142 22.8579C 30.0142 24.4067 28.9025 24.7266 27.7818 24.7266L 26.1822 24.7266L 26.1822 26.5964L 23.6898 26.5964L 22.1102 24.7505L 20.4687 26.5964L 15.389 26.5964L 15.389 21.0214L 20.5456 21.0214L 22.1252 22.8475L 23.7568 21.0214L 27.8537 21.0214C 28.8715 21.0203 30.0142 21.3143 30.0142 22.8579ZM 21.2854 23.798L 19.8828 22.1744L 16.6687 22.1744L 16.6687 23.1882L 19.4829 23.1882L 19.4829 24.3267L 16.6687 24.3267L 16.6687 25.4361L 19.8198 25.4361L 21.2854 23.798ZM 24.9045 21.6187L 22.935 23.8167L 24.9045 26.0895L 24.9045 21.6187ZM 28.6375 22.8579C 28.6375 22.3697 28.3176 22.1734 27.8537 22.1734L 26.1822 22.1734L 26.1822 23.5933L 27.8377 23.5933C 28.3316 23.5944 28.6375 23.3399 28.6375 22.8579ZM 26.4171 17.0003L 25.1334 17.0003L 25.1334 11.4253L 28.0827 11.4253C 28.7375 11.4253 29.2204 11.443 29.6363 11.6923C 30.0402 11.9416 30.2841 12.3051 30.2841 12.9274C 30.2841 13.8155 29.7143 14.2757 29.3803 14.4128C 29.6613 14.5239 29.9012 14.7203 30.0152 14.8823C 30.1971 15.1597 30.2281 15.4069 30.2281 15.9044L 30.2281 17.0003L 28.9345 17.0003L 28.9285 16.2971C 28.9285 15.9616 28.9594 15.4796 28.7265 15.2116C 28.5396 15.0163 28.2536 14.9737 27.7917 14.9737L 26.4171 14.9737L 26.4171 17.0003ZM 26.4151 13.8249L 27.9737 13.8249C 28.2226 13.8249 28.4306 13.8217 28.6085 13.7106C 28.7735 13.6202 28.8725 13.4239 28.8725 13.1808C 28.8725 12.9419 28.7695 12.7695 28.6035 12.6884C 28.4516 12.5991 28.2176 12.5877 27.9957 12.5877L 26.4161 12.5877L 26.4151 13.8249ZM 32.3356 11.4264L 31.0269 11.4264L 31.0269 17.0014L 32.3356 17.0014L 32.3356 11.4264ZM 33.6512 16.3844C 33.1993 15.9107 32.9634 15.2687 32.9634 14.2559C 32.9634 13.4291 33.1044 12.6729 33.6542 12.0756C 34.0671 11.631 34.7179 11.4264 35.6017 11.4264L 36.8424 11.4264L 36.8424 12.6209L 35.6277 12.6209C 35.1568 12.6209 34.8939 12.6936 34.64 12.9513C 34.421 13.186 34.2721 13.6285 34.2721 14.2144C 34.2721 14.8106 34.384 15.2417 34.625 15.5222C 34.8219 15.7434 35.1838 15.8099 35.5187 15.8099L 36.0936 15.8099L 37.9051 11.4264L 39.8256 11.4264L 41.997 16.6991L 41.997 11.4264L 43.9495 11.4264L 46.2049 15.3092L 46.2049 11.4264L 47.5166 11.4264L 47.5166 17.0014L 45.7011 17.0014L 43.2677 12.8173L 43.2677 17.0014L 40.6574 17.0014L 40.1575 15.758L 37.4942 15.758L 37.0123 17.0014L 35.5107 17.0014C 34.8859 17.0003 34.0971 16.857 33.6512 16.3844ZM 37.9531 14.5956L 39.7226 14.5956L 38.8339 12.3737L 37.9531 14.5956ZM 35.2608 13.6098C 35.2488 13.6275 35.1588 13.828 35.1588 14.2144C 35.1588 14.5967 35.2178 14.7805 35.2608 14.8636C 35.3058 14.8761 35.3888 14.8906 35.5127 14.8906L 36.0686 13.5413L 35.6307 13.5413C 35.3288 13.5402 35.2978 13.5735 35.2608 13.6098ZM 56.4653 1.51036L 56.4653 36.5114C 56.4653 37.3455 55.8154 38.0217 55.0117 38.0217L 1.45362 38.0217C 0.64983 38.0217 0 37.3445 0 36.5103L 0 1.51036C 0 0.676232 0.64983 1.34727e-07 1.45362 1.34727e-07L 55.0117 1.34727e-07C 55.8154 1.34727e-07 56.4653 0.676232 56.4653 1.51036ZM 14.6992 17.9217L 15.8259 17.9217C 16.1778 17.9217 16.4937 17.7067 16.6357 17.3733L 16.8056 16.9785L 16.8056 17.0014C 16.8056 17.5093 17.2015 17.9207 17.6914 17.9207L 19.006 17.9207C 19.186 17.9207 19.343 17.85 19.4839 17.7555C 19.6239 17.85 19.7808 17.9207 19.9618 17.9207L 24.2447 17.9207C 24.4106 17.9207 24.5576 17.8604 24.6886 17.7784C 24.8225 17.8604 24.9675 17.9207 25.1334 17.9207L 26.4171 17.9207C 26.906 17.9207 27.3029 17.5083 27.3029 17.0003L 27.3029 15.893L 27.7917 15.893C 27.9027 15.893 27.9817 15.8961 28.0407 15.9003C 28.0467 15.9948 28.0447 16.107 28.0447 16.1818L 28.0427 16.3044L 28.0477 17.0076C 28.0517 17.5125 28.4476 17.9207 28.9345 17.9207L 30.2281 17.9207C 30.3741 17.9207 30.505 17.875 30.626 17.8095C 30.749 17.875 30.8819 17.9207 31.0269 17.9207L 32.3366 17.9207C 32.7655 17.9207 33.1054 17.5987 33.1883 17.179C 33.9172 17.8137 34.9389 17.9207 35.5097 17.9207L 37.0113 17.9207C 37.3703 17.9207 37.6962 17.6922 37.8291 17.3442L 38.0911 16.6762L 39.5687 16.6762L 39.8396 17.3535C 39.9796 17.6963 40.3005 17.9196 40.6574 17.9196L 43.2677 17.9196C 43.7556 17.9196 44.1535 17.5073 44.1535 16.9993L 44.1535 16.1195L 44.9403 17.4751C 45.1012 17.7514 45.3882 17.9196 45.7011 17.9196L 47.5166 17.9196C 48.0045 17.9196 48.4024 17.5073 48.4024 16.9993L 48.4024 11.4243C 48.4024 10.9163 48.0065 10.5039 47.5166 10.5039L 46.2049 10.5039C 45.7151 10.5039 45.3172 10.9163 45.3172 11.4243L 45.3172 11.9998L 44.7073 10.9496C 44.5474 10.6733 44.2605 10.505 43.9495 10.505L 41.997 10.505C 41.5072 10.505 41.1103 10.9174 41.1103 11.4253L 41.1103 12.2075L 40.6394 11.0628C 40.4984 10.7252 40.1795 10.505 39.8256 10.505L 37.9051 10.505C 37.7092 10.505 37.5242 10.5715 37.3752 10.6878C 37.2283 10.5725 37.0433 10.505 36.8464 10.505L 35.6057 10.505C 34.554 10.505 33.7722 10.7709 33.1983 11.2872C 33.1334 10.8478 32.7814 10.505 32.3386 10.505L 31.0299 10.505C 30.681 10.505 30.3851 10.72 30.2411 11.0233C 30.1861 10.9818 30.1421 10.9329 30.0812 10.8945C 29.4783 10.533 28.8475 10.505 28.0847 10.505L 25.1354 10.505C 24.9695 10.505 24.8235 10.5652 24.6906 10.6473C 24.5596 10.5652 24.4126 10.505 24.2467 10.505L 19.9638 10.505C 19.7828 10.505 19.6259 10.5746 19.4859 10.6701C 19.345 10.5746 19.188 10.505 19.008 10.505L 16.8706 10.505C 16.5167 10.505 16.1948 10.7262 16.0568 11.0669L 15.295 12.9326L 14.4562 11.0399C 14.3103 10.7148 13.9953 10.505 13.6514 10.505L 11.557 10.505C 11.0671 10.505 10.6712 10.9174 10.6712 11.4253L 10.6712 12.2262L 10.1903 11.0607C 10.0494 10.7231 9.73046 10.5039 9.37556 10.5039L 7.47205 10.5039C 7.11714 10.5039 6.79623 10.7242 6.65726 11.0618L 4.36186 16.6368C 4.24389 16.9204 4.27289 17.2465 4.43584 17.5062C 4.5998 17.7638 4.87773 17.9196 5.17565 17.9196L 6.56929 17.9196C 6.92519 17.9196 7.24911 17.6953 7.38507 17.3525L 7.656 16.6752L 9.14162 16.6752L 9.40855 17.3483C 9.54551 17.6932 9.86843 17.9186 10.2283 17.9186L 12.8367 17.9186C 13.3255 17.9186 13.7224 17.5062 13.7224 16.9983L 13.7224 16.9764L 13.8904 17.3722C 14.0313 17.7067 14.3493 17.9217 14.6992 17.9217ZM 52.1764 24.8367C 52.1764 24.0577 51.9764 23.478 51.5366 23.0085C 51.5276 22.9992 51.5176 22.9898 51.5106 22.9815C 51.7555 22.8174 51.9155 22.5317 51.9155 22.2066L 51.9155 21.0203C 51.9155 20.5113 51.5196 20.099 51.0307 20.099L 48.4594 20.099C 47.6586 20.099 47.0577 20.3431 46.6178 20.7139C 46.4949 20.3576 46.177 20.099 45.7901 20.099L 43.2207 20.099C 42.5149 20.099 41.9551 20.2818 41.5332 20.5789C 41.3812 20.2974 41.1013 20.099 40.7694 20.099L 36.4905 20.099C 36.1446 20.099 35.8556 20.3088 35.7097 20.6069C 35.6477 20.5633 35.6047 20.5103 35.5377 20.4698C 34.9189 20.126 34.2591 20.099 33.5772 20.099L 30.616 20.099C 30.2691 20.099 29.9772 20.3098 29.8322 20.6111C 29.3833 20.3057 28.7515 20.099 27.8537 20.099L 23.7568 20.099C 23.5099 20.099 23.2749 20.2049 23.107 20.3929L 22.1362 21.4816L 21.2045 20.4044C 21.0375 20.2091 20.7986 20.099 20.5456 20.099L 15.389 20.099C 14.9001 20.099 14.5032 20.5103 14.5032 21.0203L 14.5032 26.5954C 14.5032 27.1033 14.8991 27.5167 15.389 27.5167L 20.4687 27.5167C 20.7156 27.5167 20.9505 27.4087 21.1185 27.2207L 22.0972 26.1196L 23.026 27.2062C 23.1939 27.4025 23.4359 27.5147 23.6888 27.5147L 26.1812 27.5147C 26.671 27.5147 27.0679 27.1033 27.0679 26.5943L 27.0679 25.6439L 27.7808 25.6439C 28.6465 25.6439 29.2744 25.459 29.7292 25.1775L 29.7292 26.5943C 29.7292 27.1023 30.1251 27.5147 30.616 27.5147L 31.9047 27.5147C 32.3936 27.5147 32.7904 27.1033 32.7904 26.5943L 32.7904 25.4777L 33.2743 25.4777C 33.3923 25.4777 33.4753 25.4818 33.5343 25.486C 33.5402 25.5847 33.5403 25.7051 33.5383 25.7841L 33.5383 26.5943C 33.5383 27.1023 33.9341 27.5147 34.425 27.5147L 35.7117 27.5147C 35.8536 27.5147 35.9826 27.4721 36.1016 27.4108C 36.2196 27.4742 36.3505 27.5147 36.4935 27.5147L 40.7724 27.5147C 40.9123 27.5147 41.0393 27.4742 41.1563 27.4149C 41.2742 27.4742 41.4002 27.5147 41.5412 27.5147L 44.0385 27.5147C 44.8353 27.5147 45.4791 27.3131 45.966 26.9548C 46.102 27.283 46.4149 27.5147 46.7808 27.5147L 49.2781 27.5147C 51.0937 27.5167 52.1764 26.5143 52.1764 24.8367ZM 44.2035 23.208L 43.5147 23.1872C 43.2957 23.1872 43.1517 23.1727 43.0148 23.1238C 42.8538 23.0605 42.7349 22.9192 42.7349 22.7083C 42.7349 22.5317 42.7868 22.3977 42.9288 22.3063C 43.0568 22.216 43.2077 22.2056 43.4427 22.2056L 45.7941 22.2056L 45.7941 21.0193L 43.2247 21.0193C 41.8791 21.0193 41.3912 21.869 41.3912 22.6792C 41.3912 24.442 42.8938 24.3631 44.0915 24.4036C 44.3164 24.4036 44.4504 24.442 44.5484 24.5272C 44.6384 24.6061 44.7043 24.7329 44.7043 24.896C 44.7043 25.0476 44.6424 25.1743 44.5544 25.2595C 44.4464 25.3655 44.2735 25.3977 44.0315 25.3977L 41.5442 25.3977L 41.5442 26.5933L 44.0415 26.5933C 45.3342 26.5933 46.057 26.0334 46.057 24.8336C 46.057 24.2613 45.922 23.9206 45.6721 23.6526C 45.3772 23.3492 44.8993 23.2256 44.2035 23.208ZM 34.8719 24.0047C 35.1558 24.1127 35.3908 24.3111 35.4987 24.4732C 35.6817 24.7453 35.7077 24.9988 35.7117 25.4901L 35.7117 26.5954L 34.425 26.5954L 34.425 25.8984C 34.425 25.5628 34.456 25.0663 34.2181 24.8066C 34.0301 24.6072 33.7452 24.5594 33.2773 24.5594L 31.9077 24.5594L 31.9077 26.5954L 30.62 26.5954L 30.62 21.0203L 33.5802 21.0203C 34.2291 21.0203 34.7009 21.0484 35.1248 21.2821C 35.5277 21.5356 35.7827 21.8846 35.7827 22.5203C 35.7807 23.4126 35.2078 23.8665 34.8719 24.0047ZM 34.362 22.7769C 34.362 22.539 34.2631 22.3655 34.0971 22.2752C 33.9411 22.1796 33.7112 22.1744 33.4853 22.1744L 31.9057 22.1744L 31.9057 23.4271L 33.4643 23.4271C 33.7142 23.4271 33.9272 23.4178 34.0991 23.3118C 34.2631 23.208 34.362 23.0148 34.362 22.7769ZM 36.4925 26.5954L 40.7714 26.5954L 40.7714 25.4392L 37.7681 25.433L 37.7681 24.3246L 40.6974 24.3246L 40.6974 23.1872L 37.7681 23.1872L 37.7681 22.1723L 40.7714 22.1723L 40.7714 21.0203L 36.4925 21.0203L 36.4925 26.5954ZM 49.4431 23.208L 48.7533 23.1872C 48.5363 23.1872 48.3914 23.1727 48.2534 23.1238C 48.0945 23.0605 47.9745 22.9192 47.9745 22.7083C 47.9745 22.5317 48.0265 22.3977 48.1674 22.3063C 48.2964 22.216 48.4484 22.2056 48.6823 22.2056L 51.0347 22.2056L 51.0347 21.0193L 48.4634 21.0193C 47.1197 21.0193 46.6298 21.869 46.6298 22.6792C 46.6298 24.442 48.1334 24.3631 49.3321 24.4036C 49.5561 24.4036 49.689 24.442 49.789 24.5272C 49.877 24.6061 49.944 24.7329 49.944 24.896C 49.944 25.0476 49.881 25.1743 49.795 25.2595C 49.686 25.3655 49.5131 25.3977 49.2711 25.3977L 46.7848 25.3977L 46.7848 26.5933L 49.2821 26.5933C 50.5748 26.5933 51.2956 26.0334 51.2956 24.8336C 51.2956 24.2613 51.1627 23.9206 50.9107 23.6526C 50.6178 23.3492 50.1389 23.2256 49.4431 23.208Z"/>
</defs>
</svg>
