<svg width="117" height="24" viewBox="0 0 117 24" version="1.1" xmlns="http://www.w3.org/2000/svg" xmlns:xlink="http://www.w3.org/1999/xlink">
<title>i&#60;3lima</title>
<desc>Created using Figma</desc>
<g id="Canvas" transform="translate(644 -1626)">
<g id="i&#60;3lima">
<g id="I Lima">
<use xlink:href="#path0_fill" transform="translate(-646 1618)" fill="#F2F2F2"/>
</g>
<g id="heart">
<g id="Vector">
<use xlink:href="#path1_fill" transform="translate(-631 1626)" fill="#D75A4A"/>
</g>
</g>
</g>
</g>
<defs>
<path id="path0_fill" d="M 6 28.17C 6 28.69 5.81 29.13 5.43 29.49C 5.05 29.83 4.61 30 4.11 30C 3.57 30 3.12 29.83 2.76 29.49C 2.42 29.13 2.25 28.69 2.25 28.17L 2.25 10.83C 2.25 10.31 2.43 9.88 2.79 9.54C 3.15 9.18 3.61 9 4.17 9C 4.67 9 5.1 9.18 5.46 9.54C 5.82 9.88 6 10.31 6 10.83L 6 28.17ZM 64.1327 26.49C 64.6527 26.49 65.0827 26.66 65.4227 27C 65.7827 27.32 65.9627 27.74 65.9627 28.26C 65.9627 28.76 65.7827 29.18 65.4227 29.52C 65.0827 29.84 64.6527 30 64.1327 30L 54.3827 30C 53.8627 30 53.4227 29.83 53.0627 29.49C 52.7227 29.13 52.5527 28.69 52.5527 28.17L 52.5527 10.83C 52.5527 10.31 52.7327 9.88 53.0927 9.54C 53.4527 9.18 53.9127 9 54.4727 9C 54.9727 9 55.4027 9.18 55.7627 9.54C 56.1227 9.88 56.3027 10.31 56.3027 10.83L 56.3027 26.49L 64.1327 26.49ZM 72.4884 28.17C 72.4884 28.69 72.3184 29.13 71.9784 29.49C 71.6384 29.83 71.2084 30 70.6884 30C 70.1684 30 69.7384 29.83 69.3984 29.49C 69.0584 29.13 68.8884 28.69 68.8884 28.17L 68.8884 15.78C 68.8884 15.26 69.0584 14.83 69.3984 14.49C 69.7384 14.13 70.1684 13.95 70.6884 13.95C 71.2084 13.95 71.6384 14.13 71.9784 14.49C 72.3184 14.83 72.4884 15.26 72.4884 15.78L 72.4884 28.17ZM 70.6584 12C 69.9784 12 69.4984 11.89 69.2184 11.67C 68.9384 11.45 68.7984 11.06 68.7984 10.5L 68.7984 9.93C 68.7984 9.37 68.9484 8.98 69.2484 8.76C 69.5484 8.54 70.0284 8.43 70.6884 8.43C 71.3884 8.43 71.8784 8.54 72.1584 8.76C 72.4384 8.98 72.5784 9.37 72.5784 9.93L 72.5784 10.5C 72.5784 11.08 72.4284 11.48 72.1284 11.7C 71.8484 11.9 71.3584 12 70.6584 12ZM 94.6983 13.65C 96.6783 13.65 98.0483 14.26 98.8083 15.48C 99.5683 16.68 99.9483 18.35 99.9483 20.49L 99.9483 28.17C 99.9483 28.69 99.7783 29.13 99.4383 29.49C 99.0983 29.83 98.6683 30 98.1483 30C 97.6283 30 97.1983 29.83 96.8583 29.49C 96.5183 29.13 96.3483 28.69 96.3483 28.17L 96.3483 20.49C 96.3483 19.39 96.1283 18.53 95.6883 17.91C 95.2683 17.27 94.5183 16.95 93.4383 16.95C 92.3183 16.95 91.4383 17.29 90.7983 17.97C 90.1783 18.63 89.8683 19.47 89.8683 20.49L 89.8683 28.17C 89.8683 28.69 89.6983 29.13 89.3583 29.49C 89.0183 29.83 88.5883 30 88.0683 30C 87.5483 30 87.1183 29.83 86.7783 29.49C 86.4383 29.13 86.2683 28.69 86.2683 28.17L 86.2683 20.49C 86.2683 19.39 86.0483 18.53 85.6083 17.91C 85.1883 17.27 84.4383 16.95 83.3583 16.95C 82.2383 16.95 81.3583 17.29 80.7183 17.97C 80.0983 18.63 79.7883 19.47 79.7883 20.49L 79.7883 28.17C 79.7883 28.69 79.6183 29.13 79.2783 29.49C 78.9383 29.83 78.5083 30 77.9883 30C 77.4683 30 77.0383 29.83 76.6983 29.49C 76.3583 29.13 76.1883 28.69 76.1883 28.17L 76.1883 15.78C 76.1883 15.26 76.3583 14.83 76.6983 14.49C 77.0383 14.13 77.4683 13.95 77.9883 13.95C 78.5083 13.95 78.9383 14.13 79.2783 14.49C 79.6183 14.83 79.7883 15.26 79.7883 15.78L 79.7883 16.26C 80.3283 15.54 81.0083 14.93 81.8283 14.43C 82.6683 13.91 83.5983 13.65 84.6183 13.65C 87.1383 13.65 88.7483 14.75 89.4483 16.95C 89.9083 16.11 90.5983 15.35 91.5183 14.67C 92.4583 13.99 93.5183 13.65 94.6983 13.65ZM 116.835 13.65C 117.355 13.65 117.785 13.82 118.125 14.16C 118.465 14.5 118.635 14.94 118.635 15.48L 118.635 28.17C 118.635 28.69 118.465 29.13 118.125 29.49C 117.785 29.83 117.355 30 116.835 30C 116.315 30 115.885 29.83 115.545 29.49C 115.225 29.15 115.055 28.72 115.035 28.2C 114.535 28.78 113.855 29.28 112.995 29.7C 112.155 30.1 111.265 30.3 110.325 30.3C 108.945 30.3 107.695 29.95 106.575 29.25C 105.455 28.53 104.565 27.54 103.905 26.28C 103.265 25.02 102.945 23.59 102.945 21.99C 102.945 20.39 103.265 18.96 103.905 17.7C 104.545 16.42 105.415 15.43 106.515 14.73C 107.635 14.01 108.865 13.65 110.205 13.65C 111.165 13.65 112.065 13.83 112.905 14.19C 113.745 14.53 114.455 14.97 115.035 15.51L 115.035 15.48C 115.035 14.96 115.205 14.53 115.545 14.19C 115.885 13.83 116.315 13.65 116.835 13.65ZM 110.775 27C 112.075 27 113.135 26.53 113.955 25.59C 114.775 24.63 115.185 23.43 115.185 21.99C 115.185 20.55 114.775 19.35 113.955 18.39C 113.135 17.43 112.075 16.95 110.775 16.95C 109.495 16.95 108.445 17.43 107.625 18.39C 106.805 19.35 106.395 20.55 106.395 21.99C 106.395 23.43 106.795 24.63 107.595 25.59C 108.415 26.53 109.475 27 110.775 27Z"/>
<path id="path1_fill" d="M 12.9223 4.23965C 13.9716 1.74417 16.3689 0.000521701 19.1572 0.000521701C 22.9132 0.000521701 25.6183 3.22435 25.9584 7.06643C 25.9584 7.06643 26.142 8.02017 25.7379 9.73722C 25.1877 12.0757 23.8945 14.1532 22.1509 15.7388L 12.9223 24L 3.84912 15.7383C 2.10552 14.1532 0.812257 12.0751 0.262086 9.7367C -0.141962 8.01965 0.041602 7.06591 0.041602 7.06591C 0.381689 3.22383 3.08678 0 6.84282 0C 9.63163 0 11.8729 1.74417 12.9223 4.23965Z"/>
</defs>
</svg>
