<svg width="260" height="27" viewBox="0 0 260 27" version="1.1" xmlns="http://www.w3.org/2000/svg" xmlns:xlink="http://www.w3.org/1999/xlink">
<title>LIMA CITY PASS</title>
<desc>Created using Figma</desc>
<g id="Canvas" transform="translate(-1244 -192)">
<g id="LIMA CITY PASS">
<use xlink:href="#path0_fill" transform="translate(1242 182)" fill="#253237"/>
</g>
</g>
<defs>
<path id="path0_fill" d="M 16.884 32.652C 17.388 32.652 17.796 32.808 18.108 33.12C 18.444 33.432 18.612 33.84 18.612 34.344C 18.612 34.824 18.444 35.22 18.108 35.532C 17.796 35.844 17.388 36 16.884 36L 4.716 36C 4.212 36 3.792 35.832 3.456 35.496C 3.144 35.16 2.988 34.752 2.988 34.272L 2.988 12.528C 2.988 12.048 3.156 11.64 3.492 11.304C 3.828 10.968 4.26 10.8 4.788 10.8C 5.268 10.8 5.676 10.968 6.012 11.304C 6.372 11.64 6.552 12.048 6.552 12.528L 6.552 32.652L 16.884 32.652ZM 26.345 34.236C 26.345 34.74 26.165 35.16 25.805 35.496C 25.445 35.832 25.025 36 24.545 36C 24.017 36 23.585 35.832 23.249 35.496C 22.937 35.16 22.781 34.74 22.781 34.236L 22.781 12.528C 22.781 12.048 22.949 11.64 23.285 11.304C 23.621 10.968 24.053 10.8 24.581 10.8C 25.061 10.8 25.469 10.968 25.805 11.304C 26.165 11.64 26.345 12.048 26.345 12.528L 26.345 34.236ZM 54.1963 10.764C 54.6763 10.788 55.0843 10.968 55.4203 11.304C 55.7563 11.616 55.9243 12.012 55.9243 12.492L 55.9243 34.272C 55.9243 34.752 55.7563 35.16 55.4203 35.496C 55.1083 35.832 54.6883 36 54.1603 36C 53.6323 36 53.2003 35.844 52.8643 35.532C 52.5283 35.196 52.3603 34.776 52.3603 34.272L 52.3603 17.604L 45.3763 28.188C 45.2083 28.404 44.9923 28.584 44.7283 28.728C 44.4883 28.872 44.2363 28.932 43.9723 28.908C 43.7323 28.932 43.4803 28.872 43.2163 28.728C 42.9763 28.584 42.7723 28.404 42.6043 28.188L 35.5843 17.28L 35.5843 34.272C 35.5843 34.776 35.4283 35.196 35.1163 35.532C 34.8283 35.844 34.4323 36 33.9283 36C 33.4483 36 33.0523 35.844 32.7403 35.532C 32.4523 35.196 32.3083 34.776 32.3083 34.272L 32.3083 12.492C 32.3083 12.036 32.4763 11.64 32.8123 11.304C 33.1483 10.944 33.5683 10.764 34.0723 10.764C 34.3603 10.764 34.6363 10.836 34.9003 10.98C 35.1883 11.124 35.4163 11.316 35.5843 11.556L 44.1163 24.48L 52.7563 11.556C 53.1403 11.028 53.6203 10.764 54.1963 10.764ZM 81.2779 33.768C 81.3499 33.984 81.3859 34.212 81.3859 34.452C 81.3859 34.932 81.2179 35.328 80.8819 35.64C 80.5699 35.952 80.1979 36.108 79.7659 36.108C 79.4299 36.108 79.1179 36.012 78.8299 35.82C 78.5659 35.604 78.3499 35.316 78.1819 34.956L 75.9499 29.664L 64.8259 29.664L 62.6299 34.992C 62.5099 35.352 62.3059 35.628 62.0179 35.82C 61.7539 36.012 61.4539 36.108 61.1179 36.108C 60.6139 36.108 60.2299 35.976 59.9659 35.712C 59.7019 35.448 59.5699 35.088 59.5699 34.632C 59.5699 34.536 59.5939 34.344 59.6419 34.056L 68.8219 11.808C 68.9899 11.424 69.2179 11.136 69.5059 10.944C 69.8179 10.728 70.1659 10.644 70.5499 10.692C 70.9099 10.692 71.2339 10.788 71.5219 10.98C 71.8099 11.172 72.0139 11.448 72.1339 11.808L 81.2779 33.768ZM 66.1939 26.388L 74.5819 26.388L 70.3699 16.308L 66.1939 26.388ZM 112.956 12.276C 113.532 12.588 113.82 13.068 113.82 13.716C 113.82 14.148 113.676 14.544 113.388 14.904C 113.1 15.288 112.704 15.48 112.2 15.48C 111.864 15.48 111.54 15.396 111.228 15.228C 109.74 14.388 108.132 13.968 106.404 13.968C 104.604 13.968 103.008 14.364 101.616 15.156C 100.248 15.948 99.1799 17.064 98.4119 18.504C 97.6439 19.92 97.2599 21.552 97.2599 23.4C 97.2599 25.392 97.6559 27.108 98.4479 28.548C 99.2399 29.988 100.332 31.092 101.724 31.86C 103.116 32.604 104.676 32.976 106.404 32.976C 108.18 32.976 109.788 32.544 111.228 31.68C 111.516 31.536 111.828 31.464 112.164 31.464C 112.692 31.464 113.112 31.668 113.424 32.076C 113.712 32.436 113.856 32.82 113.856 33.228C 113.856 33.516 113.772 33.792 113.604 34.056C 113.46 34.296 113.256 34.488 112.992 34.632C 112.056 35.16 111 35.58 109.824 35.892C 108.672 36.204 107.532 36.36 106.404 36.36C 104.076 36.36 101.928 35.844 99.9599 34.812C 98.0159 33.78 96.4559 32.28 95.2799 30.312C 94.1279 28.344 93.5519 26.04 93.5519 23.4C 93.5519 20.976 94.1039 18.792 95.2079 16.848C 96.3359 14.88 97.8719 13.344 99.8159 12.24C 101.784 11.112 103.98 10.548 106.404 10.548C 108.732 10.548 110.916 11.124 112.956 12.276ZM 121.513 34.236C 121.513 34.74 121.333 35.16 120.973 35.496C 120.613 35.832 120.193 36 119.713 36C 119.185 36 118.753 35.832 118.417 35.496C 118.105 35.16 117.949 34.74 117.949 34.236L 117.949 12.528C 117.949 12.048 118.117 11.64 118.453 11.304C 118.789 10.968 119.221 10.8 119.749 10.8C 120.229 10.8 120.637 10.968 120.973 11.304C 121.333 11.64 121.513 12.048 121.513 12.528L 121.513 34.236ZM 143.82 10.8C 144.324 10.8 144.732 10.956 145.044 11.268C 145.38 11.556 145.548 11.952 145.548 12.456C 145.548 12.96 145.38 13.356 145.044 13.644C 144.732 13.932 144.324 14.076 143.82 14.076L 137.412 14.076L 137.412 34.272C 137.412 34.752 137.232 35.16 136.872 35.496C 136.536 35.832 136.104 36 135.576 36C 135.048 36 134.604 35.832 134.244 35.496C 133.908 35.16 133.74 34.752 133.74 34.272L 133.74 14.076L 127.368 14.076C 126.864 14.076 126.444 13.932 126.108 13.644C 125.796 13.332 125.64 12.924 125.64 12.42C 125.64 11.94 125.796 11.556 126.108 11.268C 126.444 10.956 126.864 10.8 127.368 10.8L 143.82 10.8ZM 167.363 12.42C 167.363 12.78 167.255 13.14 167.039 13.5L 159.299 24.408L 159.299 34.272C 159.299 34.752 159.131 35.16 158.795 35.496C 158.483 35.832 158.099 36 157.643 36C 157.163 36 156.755 35.832 156.419 35.496C 156.083 35.16 155.915 34.752 155.915 34.272L 155.915 24.12L 148.211 13.716C 147.875 13.284 147.707 12.852 147.707 12.42C 147.707 11.94 147.899 11.532 148.283 11.196C 148.667 10.86 149.087 10.692 149.543 10.692C 150.095 10.692 150.563 10.956 150.947 11.484L 157.715 20.844L 164.231 11.52C 164.615 10.968 165.095 10.692 165.671 10.692C 166.127 10.692 166.523 10.86 166.859 11.196C 167.195 11.532 167.363 11.94 167.363 12.42ZM 191.029 10.8C 192.301 10.8 193.477 11.148 194.557 11.844C 195.637 12.516 196.489 13.44 197.113 14.616C 197.761 15.792 198.085 17.088 198.085 18.504C 198.085 19.92 197.761 21.228 197.113 22.428C 196.489 23.628 195.637 24.576 194.557 25.272C 193.477 25.968 192.301 26.316 191.029 26.316L 184.261 26.316L 184.261 34.272C 184.261 34.752 184.105 35.16 183.793 35.496C 183.481 35.832 183.085 36 182.605 36C 182.101 36 181.693 35.844 181.381 35.532C 181.093 35.196 180.949 34.776 180.949 34.272L 180.949 12.528C 180.949 12.048 181.117 11.64 181.453 11.304C 181.789 10.968 182.197 10.8 182.677 10.8L 191.029 10.8ZM 191.029 23.04C 191.677 23.04 192.277 22.836 192.829 22.428C 193.381 21.996 193.813 21.432 194.125 20.736C 194.461 20.04 194.629 19.296 194.629 18.504C 194.629 17.28 194.269 16.248 193.549 15.408C 192.853 14.544 192.013 14.112 191.029 14.112L 184.261 14.112L 184.261 23.04L 191.029 23.04ZM 220.461 33.768C 220.533 33.984 220.569 34.212 220.569 34.452C 220.569 34.932 220.401 35.328 220.065 35.64C 219.753 35.952 219.381 36.108 218.949 36.108C 218.613 36.108 218.301 36.012 218.013 35.82C 217.749 35.604 217.533 35.316 217.365 34.956L 215.133 29.664L 204.009 29.664L 201.813 34.992C 201.693 35.352 201.489 35.628 201.201 35.82C 200.937 36.012 200.637 36.108 200.301 36.108C 199.797 36.108 199.413 35.976 199.149 35.712C 198.885 35.448 198.753 35.088 198.753 34.632C 198.753 34.536 198.777 34.344 198.825 34.056L 208.005 11.808C 208.173 11.424 208.401 11.136 208.689 10.944C 209.001 10.728 209.349 10.644 209.733 10.692C 210.093 10.692 210.417 10.788 210.705 10.98C 210.993 11.172 211.197 11.448 211.317 11.808L 220.461 33.768ZM 205.377 26.388L 213.765 26.388L 209.553 16.308L 205.377 26.388ZM 231.823 36.36C 230.071 36.36 228.523 36.12 227.179 35.64C 225.835 35.136 224.551 34.332 223.327 33.228C 222.823 32.796 222.571 32.304 222.571 31.752C 222.571 31.32 222.739 30.936 223.075 30.6C 223.411 30.24 223.807 30.06 224.263 30.06C 224.671 30.06 225.019 30.192 225.307 30.456C 226.267 31.344 227.251 32.004 228.259 32.436C 229.291 32.844 230.455 33.048 231.751 33.048C 233.263 33.048 234.535 32.7 235.567 32.004C 236.623 31.308 237.151 30.432 237.151 29.376C 237.127 28.128 236.599 27.168 235.567 26.496C 234.559 25.8 233.011 25.224 230.923 24.768C 228.451 24.264 226.543 23.436 225.199 22.284C 223.879 21.132 223.219 19.536 223.219 17.496C 223.219 16.08 223.591 14.844 224.335 13.788C 225.079 12.708 226.111 11.88 227.431 11.304C 228.751 10.728 230.239 10.44 231.895 10.44C 233.383 10.44 234.787 10.68 236.107 11.16C 237.427 11.64 238.495 12.276 239.311 13.068C 239.863 13.548 240.139 14.064 240.139 14.616C 240.139 15.048 239.971 15.432 239.635 15.768C 239.323 16.104 238.939 16.272 238.483 16.272C 238.147 16.272 237.871 16.176 237.655 15.984C 237.031 15.36 236.167 14.832 235.063 14.4C 233.959 13.968 232.903 13.752 231.895 13.752C 230.287 13.752 229.003 14.088 228.043 14.76C 227.107 15.408 226.639 16.272 226.639 17.352C 226.639 18.528 227.107 19.428 228.043 20.052C 229.003 20.676 230.419 21.204 232.291 21.636C 234.163 22.044 235.687 22.524 236.863 23.076C 238.063 23.628 238.987 24.396 239.635 25.38C 240.283 26.364 240.607 27.648 240.607 29.232C 240.607 30.624 240.211 31.86 239.419 32.94C 238.651 34.02 237.595 34.86 236.251 35.46C 234.907 36.06 233.431 36.36 231.823 36.36ZM 252.776 36.36C 251.024 36.36 249.476 36.12 248.132 35.64C 246.788 35.136 245.504 34.332 244.28 33.228C 243.776 32.796 243.524 32.304 243.524 31.752C 243.524 31.32 243.692 30.936 244.028 30.6C 244.364 30.24 244.76 30.06 245.216 30.06C 245.624 30.06 245.972 30.192 246.26 30.456C 247.22 31.344 248.204 32.004 249.212 32.436C 250.244 32.844 251.408 33.048 252.704 33.048C 254.216 33.048 255.488 32.7 256.52 32.004C 257.576 31.308 258.104 30.432 258.104 29.376C 258.08 28.128 257.552 27.168 256.52 26.496C 255.512 25.8 253.964 25.224 251.876 24.768C 249.404 24.264 247.496 23.436 246.152 22.284C 244.832 21.132 244.172 19.536 244.172 17.496C 244.172 16.08 244.544 14.844 245.288 13.788C 246.032 12.708 247.064 11.88 248.384 11.304C 249.704 10.728 251.192 10.44 252.848 10.44C 254.336 10.44 255.74 10.68 257.06 11.16C 258.38 11.64 259.448 12.276 260.264 13.068C 260.816 13.548 261.092 14.064 261.092 14.616C 261.092 15.048 260.924 15.432 260.588 15.768C 260.276 16.104 259.892 16.272 259.436 16.272C 259.1 16.272 258.824 16.176 258.608 15.984C 257.984 15.36 257.12 14.832 256.016 14.4C 254.912 13.968 253.856 13.752 252.848 13.752C 251.24 13.752 249.956 14.088 248.996 14.76C 248.06 15.408 247.592 16.272 247.592 17.352C 247.592 18.528 248.06 19.428 248.996 20.052C 249.956 20.676 251.372 21.204 253.244 21.636C 255.116 22.044 256.64 22.524 257.816 23.076C 259.016 23.628 259.94 24.396 260.588 25.38C 261.236 26.364 261.56 27.648 261.56 29.232C 261.56 30.624 261.164 31.86 260.372 32.94C 259.604 34.02 258.548 34.86 257.204 35.46C 255.86 36.06 254.384 36.36 252.776 36.36Z"/>
</defs>
</svg>
