<svg width="58" height="39" viewBox="0 0 58 39" version="1.1" xmlns="http://www.w3.org/2000/svg" xmlns:xlink="http://www.w3.org/1999/xlink">
<title>mastercard</title>
<desc>Created using Figma</desc>
<g id="Canvas" transform="translate(132 -2697)">
<g id="mastercard">
<g id="Group">
<g id="Vector">
<use xlink:href="#path0_fill" transform="translate(-131.15 2697.85)" fill="#FFFFFF"/>
</g>
</g>
</g>
</g>
<defs>
<path id="path0_fill" d="M 15.0471 16.4893C 13.9894 16.4893 13.1786 16.8424 13.1786 16.8424L 12.9546 18.224C 12.9546 18.224 13.6234 17.9415 14.6362 17.9415C 15.211 17.9415 15.6309 18.0079 15.6309 18.493C 15.6309 18.788 15.5799 18.8971 15.5799 18.8971C 15.5799 18.8971 15.1271 18.8587 14.9171 18.8587C 13.5825 18.8587 12.1808 19.4487 12.1808 21.2343C 12.1808 22.6408 13.0996 22.9618 13.6704 22.9618C 14.7591 22.9618 15.229 22.2284 15.253 22.2263L 15.202 22.8392L 16.5607 22.8392L 17.1665 18.4245C 17.1655 16.5495 15.5929 16.4893 15.0471 16.4893ZM 14.2853 21.6176C 13.8064 21.6176 13.6814 21.2385 13.6814 21.012C 13.6814 20.5737 13.9104 20.046 15.0411 20.046C 15.305 20.047 15.333 20.0751 15.377 20.0834C 15.407 20.3535 15.215 21.6176 14.2853 21.6176ZM 19.105 18.492C 19.105 19.2929 20.9435 18.8992 20.9435 20.8915C 20.9435 23.022 18.9571 22.9285 18.6101 22.9285C 17.3155 22.9285 16.9156 22.7436 16.8786 22.7333L 17.0845 21.3299C 17.0865 21.3195 17.7344 21.575 18.4552 21.575C 18.8711 21.575 19.4109 21.5325 19.4109 21.0172C 19.4109 20.2423 17.4794 20.4293 17.4794 18.5928C 17.4794 16.9733 18.6371 16.4997 19.7788 16.4997C 20.6606 16.4997 21.2025 16.6253 21.2025 16.6253L 21.0075 18.0401C 21.0075 18.0401 20.1707 17.9685 19.9538 17.9685C 19.4039 17.9695 19.105 18.0942 19.105 18.492ZM 22.7671 20.931C 22.7331 21.1502 22.7921 21.4483 23.3289 21.4483C 23.4659 21.4483 23.6208 21.4005 23.7268 21.4005L 23.5339 22.7634C 23.3789 22.808 22.94 22.9701 22.3772 22.9742C 21.6583 22.9815 21.1475 22.5619 21.1475 21.6155C 21.1475 20.9798 22.0243 15.7414 22.0582 15.7071L 23.6008 15.7071L 23.4439 16.642L 24.2137 16.642L 24.0167 18.1502L 23.1999 18.1502L 22.7671 20.931ZM 28.7195 20.2693C 28.7195 20.2693 28.9225 19.2306 28.9225 18.8078C 28.9225 17.7514 28.4166 16.4633 26.723 16.4633C 25.1714 16.4643 24.0227 18.2011 24.0227 20.1644C 24.0227 22.4299 25.4614 22.968 26.688 22.968C 27.8197 22.968 28.3176 22.7042 28.3176 22.7042L 28.5895 21.1585C 28.5895 21.1585 27.7288 21.5532 26.951 21.5532C 25.2944 21.5532 25.5843 20.2693 25.5843 20.2693L 28.7195 20.2693ZM 26.728 17.8999C 27.5988 17.8999 27.4378 18.9169 27.4378 18.9979L 25.7253 18.9979C 25.7253 18.894 25.8872 17.8999 26.728 17.8999ZM 12.7337 15.2116L 11.517 22.8465L 9.93741 22.8465L 10.8162 17.0907L 8.8337 22.8465L 7.77097 22.8465L 7.63301 17.0907L 6.69425 22.8465L 5.20564 22.8465L 6.43932 15.2116L 8.69073 15.2116L 8.76971 19.8964L 10.2903 15.2116L 12.7337 15.2116ZM 32.2516 14.2061L 24.2397 14.2061C 24.3187 14.0503 24.5986 13.4229 25.0205 12.5929L 31.6258 12.5929C 31.8627 13.1143 32.0706 13.6524 32.2516 14.2061ZM 30.791 11.0109L 25.8792 11.0109C 26.1942 10.4707 26.5421 9.91808 26.912 9.3987L 29.6653 9.3987C 30.0732 9.90977 30.4501 10.4478 30.791 11.0109ZM 28.2276 30.178C 27.6908 29.6742 27.2049 29.1164 26.746 28.5327L 29.7382 28.5327C 29.2874 29.1071 28.7945 29.6452 28.2666 30.1448L 28.2636 30.1448C 28.2636 30.1458 28.2646 30.1458 28.2646 30.1458C 28.2526 30.1562 28.2396 30.1666 28.2276 30.178ZM 30.809 26.9807L 25.6673 26.9807C 25.3544 26.4614 25.0625 25.9285 24.8115 25.3686L 31.6527 25.3686C 31.4018 25.9254 31.1209 26.4634 30.809 26.9807ZM 32.6425 16.5848C 32.4375 17.019 32.2566 17.4169 32.0686 18.4442C 30.9979 18.0505 30.9139 20.2049 30.4651 22.8589L 28.8815 22.8589L 29.8442 16.6451L 31.2808 16.6451L 31.1419 17.5457C 31.1419 17.5457 31.6537 16.5661 32.3446 16.5661C 32.5465 16.5641 32.6425 16.5848 32.6425 16.5848ZM 35.4987 21.4078C 36.0186 21.4078 36.7744 21.0141 36.7744 21.0141L 36.4985 22.7634C 36.4985 22.7634 35.6687 22.9826 35.1488 22.9826C 33.3073 22.9826 32.3726 21.6623 32.3726 19.6627C 32.3726 16.6472 34.1051 15.0412 35.8856 15.0412C 36.6894 15.0412 37.6232 15.4339 37.6232 15.4339L 37.3713 17.1323C 37.3713 17.1323 36.7404 16.6742 35.9556 16.6742C 34.9059 16.6742 33.9641 17.715 33.9641 19.6076C 33.9641 20.5394 34.403 21.4078 35.4987 21.4078ZM 50.5608 21.9625C 50.4858 22.004 50.4278 22.0643 50.3859 22.1432C 50.3439 22.2211 50.3229 22.3022 50.3229 22.3863C 50.3229 22.4704 50.3439 22.5504 50.3859 22.6273C 50.4268 22.7042 50.4848 22.7655 50.5588 22.8091C 50.6338 22.8517 50.7108 22.8735 50.7908 22.8735C 50.8727 22.8735 50.9507 22.8517 51.0237 22.8091C 51.0977 22.7655 51.1557 22.7042 51.1966 22.6273C 51.2396 22.5504 51.2586 22.4704 51.2586 22.3863C 51.2586 22.3011 51.2386 22.2201 51.1966 22.1432C 51.1557 22.0643 51.0957 22.004 51.0207 21.9625C 50.9467 21.9199 50.8707 21.8991 50.7908 21.8991C 50.7138 21.8991 50.6368 21.9199 50.5608 21.9625ZM 51.1297 22.1817C 51.1647 22.2471 51.1836 22.3146 51.1836 22.3842C 51.1836 22.4538 51.1667 22.5224 51.1317 22.5858C 51.0977 22.6502 51.0497 22.699 50.9867 22.7374C 50.9247 22.7727 50.8607 22.7914 50.7938 22.7914C 50.7258 22.7914 50.6608 22.7727 50.5998 22.7374C 50.5368 22.7011 50.4898 22.6512 50.4538 22.5858C 50.4178 22.5203 50.4019 22.4538 50.4019 22.3842C 50.4019 22.3146 50.4188 22.2471 50.4558 22.1817C 50.4908 22.1173 50.5378 22.0674 50.6018 22.0311C 50.6658 21.9947 50.7288 21.9791 50.7938 21.9791C 50.8587 21.9791 50.9227 21.9968 50.9837 22.0311C 51.0477 22.0674 51.0947 22.1162 51.1297 22.1817ZM 44.8653 20.3368C 44.8653 21.6509 45.4941 22.9379 46.7778 22.9379C 47.7026 22.9379 48.2144 22.2679 48.2144 22.2679L 48.1474 22.8402L 49.648 22.8402L 50.8277 15.2168L 49.2801 15.2199L 48.9472 17.3649C 48.9472 17.3649 48.3674 16.5308 47.4576 16.5308C 46.043 16.5319 44.8653 18.3029 44.8653 20.3368ZM 48.5623 19.403C 48.5623 20.2496 48.1594 21.3808 47.3237 21.3808C 46.7678 21.3808 46.5079 20.8967 46.5079 20.1364C 46.5079 18.893 47.0447 18.0734 47.7236 18.0734C 48.2774 18.0744 48.5623 18.4702 48.5623 19.403ZM 51.0727 27.4316C 51.0617 27.4212 51.0477 27.4098 51.0297 27.4046C 51.0727 27.4014 51.1087 27.3848 51.1347 27.3568C 51.1597 27.3287 51.1737 27.2955 51.1737 27.2571C 51.1737 27.23 51.1657 27.2041 51.1507 27.1802C 51.1357 27.1563 51.1137 27.1386 51.0867 27.1293C 51.0617 27.1189 51.0187 27.1137 50.9597 27.1137L 50.7858 27.1137L 50.7858 27.6383L 50.8677 27.6383L 50.8677 27.4149L 50.9147 27.4149C 50.9427 27.4149 50.9657 27.4212 50.9787 27.4336C 50.9997 27.4513 51.0297 27.4918 51.0647 27.5552L 51.1087 27.6383L 51.2096 27.6383L 51.1477 27.5354C 51.1177 27.4877 51.0927 27.4534 51.0727 27.4316ZM 50.9657 27.3443L 50.8657 27.3443L 50.8657 27.1864L 50.9597 27.1864C 50.9987 27.1864 51.0247 27.1895 51.0397 27.1958C 51.0557 27.202 51.0657 27.2113 51.0747 27.2228C 51.0827 27.2352 51.0867 27.2487 51.0867 27.2633C 51.0867 27.2872 51.0787 27.308 51.0617 27.3225C 51.0447 27.337 51.0117 27.3443 50.9657 27.3443ZM 55.0117 1.34727e-07L 1.45362 1.34727e-07C 0.64983 1.34727e-07 0 0.676232 0 1.51036L 0 36.5114C 0 37.3455 0.64983 38.0217 1.45362 38.0217L 55.0117 38.0217C 55.8154 38.0217 56.4653 37.3455 56.4653 36.5114L 56.4653 1.51036C 56.4653 0.676232 55.8154 1.34727e-07 55.0117 1.34727e-07ZM 51.3956 27.6102C 51.3536 27.6892 51.2966 27.7494 51.2226 27.792C 51.1487 27.8346 51.0707 27.8564 50.9907 27.8564C 50.9087 27.8564 50.8307 27.8346 50.7568 27.792C 50.6838 27.7494 50.6258 27.6892 50.5828 27.6102C 50.5418 27.5344 50.5208 27.4534 50.5208 27.3692C 50.5208 27.2851 50.5418 27.2051 50.5838 27.1262C 50.6248 27.0472 50.6848 26.988 50.7588 26.9454C 50.8337 26.9049 50.9097 26.8831 50.9897 26.8831C 51.0687 26.8831 51.1447 26.9049 51.2186 26.9454C 51.2936 26.988 51.3526 27.0472 51.3936 27.1262C 51.4356 27.2051 51.4556 27.2861 51.4556 27.3692C 51.4556 27.4523 51.4376 27.5354 51.3956 27.6102ZM 52.4433 19.0114C 52.4453 27.3267 45.961 34.0703 37.9571 34.0724C 34.2141 34.0734 30.801 32.5994 28.2296 30.178C 25.6583 32.5952 22.2522 34.0682 18.5152 34.0682C 10.5163 34.0682 4.02395 27.3235 4.02395 19.0114C 4.02395 10.7325 10.4653 4.00753 18.4222 3.95352C 18.4532 3.95352 18.4842 3.95352 18.5152 3.95352C 22.2522 3.95352 25.6593 5.42648 28.2306 7.84367C 30.801 5.42544 34.2101 3.95144 37.9501 3.9504C 45.954 3.94729 52.4433 10.6878 52.4453 19.0041C 52.4433 19.0062 52.4433 19.0083 52.4433 19.0114ZM 50.5868 22.1308L 50.5868 22.6543L 50.6688 22.6543L 50.6688 22.432L 50.7158 22.432C 50.7448 22.432 50.7678 22.4382 50.7818 22.4497C 50.8027 22.4684 50.8307 22.5078 50.8677 22.5733L 50.9107 22.6553L 51.0117 22.6553L 50.9497 22.5525C 50.9207 22.5037 50.8947 22.4694 50.8757 22.4486C 50.8637 22.4372 50.8507 22.4279 50.8327 22.4216C 50.8757 22.4185 50.9107 22.4019 50.9367 22.3738C 50.9617 22.3468 50.9767 22.3115 50.9767 22.2741C 50.9767 22.2482 50.9687 22.2211 50.9527 22.1973C 50.9367 22.1744 50.9157 22.1567 50.8907 22.1464C 50.8657 22.136 50.8217 22.1308 50.7628 22.1308L 50.5868 22.1308ZM 50.8777 22.2378C 50.8867 22.2513 50.8907 22.2627 50.8907 22.2804C 50.8907 22.3032 50.8817 22.3229 50.8667 22.3375C 50.8477 22.3531 50.8167 22.3593 50.7698 22.3593L 50.6708 22.3593L 50.6708 22.2014L 50.7628 22.2014C 50.8027 22.2014 50.8287 22.2045 50.8447 22.2097C 50.8577 22.217 50.8697 22.2243 50.8777 22.2378ZM 40.0586 16.4893C 38.9988 16.4893 38.189 16.8424 38.189 16.8424L 37.9641 18.224C 37.9641 18.224 38.6339 17.9415 39.6457 17.9415C 40.2205 17.9415 40.6414 18.0079 40.6414 18.493C 40.6414 18.788 40.5884 18.8971 40.5884 18.8971C 40.5884 18.8971 40.1365 18.8587 39.9246 18.8587C 38.5909 18.8587 37.1903 19.4487 37.1903 21.2343C 37.1903 22.6408 38.1101 22.9618 38.6799 22.9618C 39.7676 22.9618 40.2375 22.2284 40.2625 22.2263L 40.2115 22.8392L 41.5692 22.8392L 42.175 18.4245C 42.178 16.5495 40.6044 16.4893 40.0586 16.4893ZM 39.2987 21.6176C 38.8189 21.6176 38.6949 21.2385 38.6949 21.012C 38.6949 20.5737 38.9238 20.046 40.0546 20.046C 40.3175 20.047 40.3455 20.0751 40.3905 20.0834C 40.4195 20.3535 40.2265 21.6176 39.2987 21.6176ZM 45.0223 18.4432C 43.9515 18.0495 43.8696 20.2028 43.4187 22.8579L 41.8351 22.8579L 42.7978 16.644L 44.2355 16.644L 44.0975 17.5447C 44.0975 17.5447 44.6104 16.5651 45.3012 16.5651C 45.5021 16.5651 45.5981 16.5859 45.5981 16.5859C 45.3932 17.019 45.2112 17.4169 45.0223 18.4432Z"/>
</defs>
</svg>
