<svg width="58" height="39" viewBox="0 0 58 39" version="1.1" xmlns="http://www.w3.org/2000/svg" xmlns:xlink="http://www.w3.org/1999/xlink">
<title>paypal</title>
<desc>Created using Figma</desc>
<g id="Canvas" transform="translate(-8 -2697)">
<g id="paypal">
<g id="Group">
<g id="Vector">
<use xlink:href="#path0_fill" transform="translate(8.81381 2697.85)" fill="#FFFFFF"/>
</g>
</g>
</g>
</g>
<defs>
<path id="path0_fill" d="M 33.3633 15.5284C 33.5912 15.6842 33.7002 15.9283 33.7062 16.2524C 33.7082 16.75 33.5303 17.1281 33.1803 17.3992C 32.8264 17.6631 32.3356 17.7981 31.7027 17.7981L 31.4118 17.7981C 31.1589 17.8002 30.9959 17.5883 31.0529 17.3348L 31.4068 15.7569C 31.4588 15.5045 31.7147 15.2926 31.9667 15.2947L 32.3476 15.2926C 32.7964 15.2947 33.1324 15.3726 33.3633 15.5284ZM 17.5004 19.2389C 17.2005 19.2835 16.9406 19.3459 16.7296 19.4196L 16.2338 19.7707C 16.1178 19.9224 16.0628 20.1156 16.0628 20.3638L 16.2887 20.8188C 16.4417 20.9082 16.6677 20.9518 16.9556 20.9518C 17.1455 20.9518 17.3515 20.904 17.5674 20.8126L 18.0273 20.5664L 18.2093 20.315C 18.2812 20.0221 18.4302 19.3708 18.4472 19.2898L 18.3662 19.1402C 18.2972 19.1423 17.7684 19.2046 17.5004 19.2389ZM 38.7579 19.2451C 38.455 19.2898 38.196 19.3511 37.9871 19.4258C 37.7731 19.5131 37.5992 19.6305 37.4862 19.7769C 37.3742 19.9286 37.3183 20.1218 37.3183 20.3711L 37.5472 20.8251C 37.6932 20.9154 37.9161 20.9591 38.213 20.9591C 38.4 20.9591 38.6059 20.9113 38.8209 20.8209L 39.2778 20.5747L 39.4657 20.3233C 39.5357 20.0273 39.6876 19.3781 39.6996 19.297L 39.6177 19.1464C 39.5487 19.1464 39.0218 19.2108 38.7579 19.2451ZM 11.1001 15.2656L 10.7172 15.2677C 10.4663 15.2656 10.2093 15.4754 10.1603 15.7289L 9.80744 17.3078C 9.75246 17.5633 9.90942 17.7721 10.1633 17.7721L 10.4493 17.7721C 11.0841 17.7721 11.576 17.6381 11.9289 17.3681C 12.2818 17.1001 12.4627 16.7188 12.4548 16.2254C 12.4568 15.9003 12.3438 15.6551 12.1178 15.5004C 11.8889 15.3456 11.548 15.2656 11.1001 15.2656ZM 56.4653 1.51036L 56.4653 36.5114C 56.4653 37.3455 55.8154 38.0217 55.0117 38.0217L 1.45362 38.0217C 0.64983 38.0217 0 37.3445 0 36.5103L 0 1.51036C 0 0.676232 0.64983 1.34727e-07 1.45362 1.34727e-07L 55.0117 1.34727e-07C 55.8154 1.34727e-07 56.4653 0.676232 56.4653 1.51036ZM 14.6772 16.0333C 14.6772 15.597 14.6082 15.2303 14.4522 14.9374C 14.3123 14.6444 14.0893 14.4024 13.8134 14.2217C 13.5255 14.0388 13.1856 13.91 12.7957 13.8332C 12.3998 13.7584 11.9429 13.7251 11.415 13.7199L 8.97166 13.721C 8.71773 13.7251 8.46879 13.9298 8.40881 14.1853L 6.76424 21.6259C 6.70425 21.8773 6.86321 22.0892 7.11714 22.0892L 8.28684 22.0892C 8.54077 22.0892 8.79171 21.8836 8.84869 21.6259L 9.25059 19.8206C 9.30357 19.5692 9.55451 19.3594 9.81144 19.3594L 10.1454 19.3594C 11.577 19.3573 12.6847 19.054 13.4805 18.4453C 14.2823 17.8355 14.6772 17.0294 14.6772 16.0333ZM 20.7616 17.2029C 20.7636 16.6617 20.5376 16.2587 20.0948 16.0011C 19.6539 15.7424 18.9561 15.6136 18.0033 15.6136C 17.5324 15.6136 17.0625 15.652 16.5877 15.7279C 16.2368 15.784 16.2028 15.7933 15.9878 15.8432C 15.5429 15.9439 15.473 16.4062 15.473 16.4062L 15.33 17.018C 15.249 17.4086 15.466 17.393 15.5559 17.3608C 15.7499 17.3005 15.8589 17.2393 16.2558 17.1458C 16.6347 17.0564 17.0346 16.9889 17.3525 16.9931C 17.8204 16.9931 18.1783 17.045 18.4162 17.1489C 18.6511 17.2559 18.7691 17.4377 18.7691 17.7015L 18.7481 17.8729L 18.5802 17.9809C 17.9153 18.0246 17.4355 18.0879 16.8536 18.1752C 16.2838 18.2572 15.7849 18.4027 15.37 18.599C 14.9241 18.8026 14.5942 19.0747 14.3633 19.4238C 14.1403 19.7749 14.0293 20.1966 14.0293 20.6952C 14.0293 21.1647 14.1913 21.548 14.5052 21.8482C 14.8211 22.1422 15.239 22.2845 15.7379 22.2845C 16.0538 22.2845 16.2987 22.2585 16.4727 22.2149L 17.0386 22.0134L 17.5184 21.735L 17.9593 21.4327L 17.9653 21.44L 17.9213 21.6353L 17.9193 21.6426L 17.9193 21.6446C 17.8713 21.8815 18.0093 22.0778 18.2322 22.0996L 18.2362 22.1038L 18.2572 22.1038L 19.155 22.1038L 19.324 22.1038L 19.34 22.0975C 19.5729 22.0695 19.7928 21.8732 19.8428 21.6426L 20.6966 17.8075L 20.7406 17.4948L 20.7616 17.2029ZM 23.3529 24.5906L 28.0157 16.3979C 28.0157 16.3979 28.4636 15.6977 28.0477 15.704C 27.7708 15.7071 26.644 15.704 26.644 15.704C 26.3921 15.704 26.0682 15.9169 25.9082 16.1683C 25.9082 16.1683 24.2327 19.1558 24.0697 19.456L 23.8758 19.4539L 23.3539 16.1891C 23.2959 15.9315 23.038 15.7123 22.7171 15.7123L 21.6683 15.7144C 21.4164 15.7144 21.2605 15.9231 21.3184 16.1776C 21.3184 16.1776 22.1142 20.8853 22.2742 21.9926C 22.3482 22.6055 22.2652 22.7125 22.2652 22.7125L 21.2285 24.5906C 21.0745 24.8461 21.1575 25.0538 21.4094 25.0538L 22.6211 25.0518C 22.871 25.0518 23.2029 24.8461 23.3529 24.5906ZM 35.9266 16.0603C 35.9246 15.624 35.8516 15.2563 35.7017 14.9654C 35.5557 14.6704 35.3368 14.4325 35.0579 14.2466C 34.7739 14.0627 34.434 13.9339 34.0391 13.8591C 33.6512 13.7875 33.1893 13.749 32.6645 13.7469L 30.2181 13.749C 29.9642 13.7532 29.7182 13.9589 29.6583 14.2113L 28.0127 21.6561C 27.9527 21.9085 28.1167 22.1183 28.3656 22.1173L 29.5383 22.1142C 29.7862 22.1173 30.0422 21.9095 30.1001 21.6571L 30.496 19.8486C 30.554 19.5972 30.806 19.3843 31.0579 19.3885L 31.3918 19.3885C 32.8234 19.3885 33.9361 19.082 34.7349 18.4764C 35.5257 17.8604 35.9266 17.0575 35.9266 16.0603ZM 42.018 17.2071C 42.018 16.6659 41.7951 16.2649 41.3492 16.0073C 40.9043 15.7486 40.2075 15.6178 39.2588 15.6178C 38.7879 15.6178 38.315 15.6562 37.8431 15.7351C 37.4932 15.7881 37.4582 15.7995 37.2413 15.8484C 36.7944 15.9481 36.7274 16.4114 36.7274 16.4114L 36.5845 17.0222C 36.5045 17.4127 36.7154 17.3951 36.8134 17.3649C 37.0063 17.3047 37.1133 17.2455 37.5082 17.1499C 37.8861 17.0616 38.287 16.9951 38.6069 16.9972C 39.0728 16.9972 39.4307 17.0492 39.6687 17.1541C 39.9066 17.26 40.0226 17.4439 40.0226 17.7057L 40.0046 17.8771L 39.8366 17.9872C 39.1668 18.0298 38.6869 18.0931 38.1091 18.1804C 37.5422 18.2635 37.0403 18.4068 36.6224 18.6042C 36.1806 18.8099 35.8456 19.081 35.6167 19.43C 35.3928 19.779 35.2818 20.2028 35.2818 20.6983C 35.2818 21.1699 35.4448 21.5553 35.7607 21.8524C 36.0786 22.1443 36.4925 22.2918 36.9924 22.2918C 37.3053 22.2866 37.5512 22.2669 37.7252 22.2201L 38.29 22.0217L 38.7729 21.7444L 39.2108 21.4379L 39.2178 21.4473L 39.1788 21.6426L 39.1738 21.6467L 39.1758 21.6498C 39.1208 21.8877 39.2608 22.083 39.4877 22.1048L 39.4897 22.111L 39.5107 22.111C 39.6577 22.111 40.1675 22.111 40.4095 22.111L 40.5774 22.111L 40.5934 22.1048C 40.8234 22.0757 41.0443 21.8794 41.0923 21.6478L 41.9481 17.8158L 41.991 17.501L 42.018 17.2071ZM 45.7371 14.2705C 45.7911 14.017 45.6381 13.8103 45.3832 13.8103L 44.3364 13.8103C 44.1215 13.8103 43.9275 13.9755 43.8326 14.1791L 43.7736 14.2736L 43.7216 14.5146L 42.256 21.4348L 42.209 21.6478L 42.211 21.6529C 42.162 21.8794 42.297 22.0529 42.5039 22.0861L 42.5239 22.1121L 43.6116 22.1121C 43.8266 22.1121 44.0245 21.9438 44.1175 21.736L 44.1725 21.6488L 45.7401 14.2726L 45.7371 14.2705ZM 47.8175 13.3065L 47.4256 13.3065L 47.4256 12.9689L 47.2327 12.9689L 47.2327 13.3065L 47.1007 13.3065L 47.1007 13.4748L 47.2327 13.4748L 47.2327 14.1043L 47.3237 14.4159L 47.5896 14.5146L 47.7006 14.5052L 47.8175 14.4813L 47.8175 14.3037L 47.8085 14.3037L 47.7355 14.3266L 47.6376 14.3411L 47.5176 14.3214L 47.4556 14.2591L 47.4286 14.1614L 47.4256 14.016L 47.4256 13.4748L 47.8175 13.4748L 47.8175 13.3065ZM 49.714 13.7231L 49.6241 13.3927L 49.3471 13.2753L 49.1422 13.319L 48.9322 13.4654L 48.8103 13.3242L 48.6123 13.2753L 48.4244 13.319L 48.2424 13.4395L 48.2424 13.3076L 48.0545 13.3076L 48.0545 14.4907L 48.2424 14.4907L 48.2424 13.6078L 48.4014 13.5049L 48.5583 13.4644L 48.6873 13.4883L 48.7513 13.5558L 48.7783 13.669L 48.7863 13.8155L 48.7863 14.4907L 48.9762 14.4907L 48.9762 13.7334L 48.9742 13.6711L 48.9712 13.6129L 49.1342 13.506L 49.2931 13.4634L 49.4201 13.4873L 49.4861 13.5548L 49.5111 13.669L 49.5231 13.8134L 49.5231 14.4886L 49.712 14.4886L 49.712 13.7231L 49.714 13.7231Z"/>
</defs>
</svg>
