<svg width="105" height="71" viewBox="0 0 105 71" version="1.1" xmlns="http://www.w3.org/2000/svg" xmlns:xlink="http://www.w3.org/1999/xlink">
<title>ticketstart</title>
<desc>Created using Figma</desc>
<g id="Canvas" transform="translate(-1494 54)">
<g id="ticketstart">
<g id="Group">
<g id="Group">
<g id="Vector">
<use xlink:href="#path0_fill" transform="matrix(0.600953 0.799284 -0.799284 0.600953 1581.7 -14.876)" fill="#737373"/>
</g>
</g>
</g>
<g id="Group">
<g id="Group">
<g id="Vector">
<use xlink:href="#path1_fill" transform="matrix(0.600953 0.799284 -0.799284 0.600953 1582.64 -2.55983)" fill="#737373"/>
</g>
</g>
</g>
<g id="Group">
<g id="Group">
<g id="Vector">
<use xlink:href="#path2_fill" transform="matrix(0.600953 0.799284 -0.799284 0.600953 1552.24 -41.8478)" fill="#737373"/>
</g>
</g>
</g>
<g id="Group">
<g id="Group">
<g id="Vector">
<use xlink:href="#path3_fill" transform="matrix(0.600953 0.799284 -0.799284 0.600953 1557.51 -30.3922)" fill="#737373"/>
</g>
</g>
</g>
<g id="Group">
<g id="Group">
<g id="Vector">
<use xlink:href="#path4_fill" transform="matrix(0.600953 0.799284 -0.799284 0.600953 1538.53 -51.7381)" fill="#737373"/>
</g>
</g>
</g>
<g id="Group">
<g id="Group">
<g id="Vector">
<use xlink:href="#path5_fill" transform="matrix(0.600953 0.799284 -0.799284 0.600953 1532.26 -34.2722)" fill="#737373"/>
</g>
</g>
</g>
<g id="Group">
<g id="Group">
<g id="Vector">
<use xlink:href="#path6_fill" transform="matrix(0.600953 0.799284 -0.799284 0.600953 1555.07 -72.2656)" fill="#737373"/>
</g>
</g>
</g>
</g>
</g>
<defs>
<path id="path0_fill" d="M 7.6098 3.57674L 2.40529 0.251485C 1.70929 -0.192932 0.754601 -0.0328198 0.272668 0.609323C -0.209266 1.25164 -0.0354026 2.13268 0.660417 2.57743L 5.86493 5.90268C 6.55414 6.34303 7.52058 6.18021 7.99737 5.54501C 8.47912 4.90236 8.30562 4.02132 7.6098 3.57674Z"/>
<path id="path1_fill" d="M 7.61005 3.57677L 2.40554 0.251689C 1.70954 -0.193067 0.755033 -0.0327855 0.272916 0.609358C -0.209201 1.25167 -0.0357019 2.13271 0.660301 2.57747C 0.660301 2.57747 5.85453 5.89594 5.86481 5.90255C 6.52777 6.32613 7.51311 6.19041 7.99743 5.54488C 8.47937 4.90274 8.30587 4.02153 7.61005 3.57677Z"/>
<path id="path2_fill" d="M 8.04572 1.37227L 1.88322 0.0376592C 1.05943 -0.140582 0.234546 0.330943 0.0408552 1.09152C -0.152469 1.85209 0.35884 2.61318 1.18281 2.79176L 7.34531 4.12637C 7.46318 4.15178 7.58068 4.16415 7.69708 4.16415C 8.39234 4.16415 9.02189 3.72414 9.18786 3.0725C 9.381 2.31176 8.86969 1.55051 8.04572 1.37227Z"/>
<path id="path3_fill" d="M 8.04572 1.37227L 1.88322 0.0376601C 1.05925 -0.140581 0.234547 0.330945 0.0408557 1.09152C -0.152468 1.8521 0.35884 2.61318 1.18281 2.79159L 7.34531 4.1262C 7.46318 4.15161 7.58068 4.16398 7.69708 4.16398C 8.39235 4.16398 9.02189 3.72414 9.18786 3.0725C 9.381 2.31176 8.86969 1.55068 8.04572 1.37227Z"/>
<path id="path4_fill" d="M 38.9196 5.72749L 24.9563 2.70366C 24.1326 2.52541 23.3077 2.99694 23.114 3.75751C 22.9207 4.51809 23.432 5.27917 24.2559 5.45759L 36.7271 8.15831L 26.6654 47.7294L 3.37528 42.6858L 13.4368 3.11469L 18.1779 4.14128C 19.002 4.31969 19.8266 3.84782 20.0201 3.08742C 20.2136 2.32701 19.7021 1.56576 18.8779 1.38734L 12.6449 0.0376602C 11.8228 -0.140581 10.9964 0.330945 10.8027 1.09152L 0.0408552 43.4165C -0.152469 44.1771 0.35884 44.9382 1.18281 45.1166L 27.4569 50.8064C 27.5726 50.8315 27.6902 50.8437 27.8072 50.8437C 28.0903 50.8437 28.3701 50.7714 28.6146 50.6316C 28.9602 50.4339 29.2064 50.1177 29.2994 49.7526L 40.0615 7.42756C 40.2547 6.66698 39.7433 5.9059 38.9196 5.72749Z"/>
<path id="path5_fill" d="M 20.8631 6.17957C 20.6059 5.61452 19.9844 5.26702 19.322 5.31819L 13.5878 5.76193L 11.3586 0.866391C 11.1016 0.301339 10.4785 -0.0463333 9.81753 0.00500427C 9.15604 0.0561724 8.60508 0.494827 8.45343 1.09139L 7.1389 6.26124L 1.40472 6.70515C 0.74323 6.75632 0.192265 7.19497 0.0406171 7.79137C -0.111031 8.38794 0.170785 9.00687 0.73864 9.32421L 5.66023 12.0754L 4.34571 17.2454C 4.19406 17.842 4.47587 18.4609 5.04373 18.7783C 5.28919 18.9155 5.56403 18.983 5.8374 18.983C 6.19688 18.983 6.55378 18.8666 6.83909 18.6394L 11.1952 15.1699L 16.117 17.9213C 16.6845 18.2386 17.4095 18.1827 17.9124 17.7824C 18.415 17.382 18.581 16.7285 18.324 16.1638L 16.0948 11.2681L 20.4511 7.79866C 20.9545 7.39795 21.1203 6.74446 20.8631 6.17957ZM 12.838 11.4163L 13.6713 13.2464C 13.6713 13.2464 11.8317 12.2181 11.8314 12.2178C 10.5585 11.5061 9.28015 12.9587 8.4079 13.6535L 8.89919 11.7213C 9.05084 11.1248 8.76903 10.5058 8.20117 10.1885L 6.36156 9.15986C 6.36156 9.15986 8.5019 8.99433 8.50483 8.99416C 9.99286 8.87895 10.0977 7.00725 10.36 5.97541C 10.36 5.97541 11.1914 7.80103 11.1932 7.80509C 11.7732 9.07854 13.7297 8.58956 14.8776 8.50078C 13.9935 9.20527 12.2434 10.1104 12.838 11.4163Z"/>
<path id="path6_fill" d="M 93.3398 20.7389C 92.0336 19.9045 91.5915 18.2918 92.311 16.9877C 92.6591 16.3571 92.4481 15.586 91.8177 15.1831L 83.9788 10.1749C 83.3479 9.77215 82.4922 9.86127 81.9745 10.3838C 81.3739 10.9909 80.5147 11.339 79.6179 11.339C 78.9696 11.339 78.3439 11.1583 77.808 10.8155C 76.5017 9.98106 76.0596 8.36841 76.7791 7.06431C 77.1272 6.43368 76.9163 5.6626 76.2858 5.2597L 68.4475 0.251488C 67.8167 -0.151249 66.9605 -0.0621282 66.4434 0.460397C 65.8426 1.06747 64.9832 1.41531 64.0866 1.41565C 63.4383 1.41565 62.8126 1.23487 62.2765 0.892107C 61.5811 0.447689 60.626 0.607632 60.1441 1.24978L 51.2829 13.0615C 51.1401 12.9769 50.9806 12.9124 50.8072 12.8748L 41.5253 10.865C 40.7788 10.7032 40.0174 11.0759 39.7435 11.737C 39.1834 13.0893 37.5615 13.8773 36.0379 13.5472C 34.4916 13.2123 33.4398 11.8614 33.5917 10.4046C 33.6651 9.70014 33.1628 9.05393 32.4161 8.89213L 23.1344 6.88217C 22.3881 6.72036 21.6267 7.09311 21.3526 7.75423C 20.7926 9.10493 19.1693 9.89431 17.6469 9.5646C 16.8239 9.38619 15.9984 9.85805 15.8048 10.6185C 15.8048 10.6185 13.5098 19.6437 13.5078 19.6518L 0.0408552 72.6158C -0.152469 73.3764 0.358839 74.1374 1.18281 74.3158C 2.7294 74.6508 3.78102 76.0018 3.62919 77.4585C 3.55575 78.1629 4.05807 78.8092 4.80456 78.971L 14.0861 80.9809C 14.8341 81.1427 15.594 80.7701 15.8679 80.109C 17.1584 76.994 22.3647 78.1333 22.0201 81.4413C 21.9467 82.1458 22.449 82.792 23.1957 82.9538L 32.4773 84.9637C 33.2148 85.1228 33.9882 84.7453 34.259 84.0915C 34.727 82.9617 35.9218 82.2025 37.2323 82.2025C 37.9083 82.2025 38.489 82.4689 39.1224 82.1068C 39.4678 81.9091 39.7141 81.5929 39.8072 81.2276L 41.8227 73.3013C 41.8227 73.3013 46.1443 76.0623 46.1458 76.0634C 46.7551 76.4527 47.6342 76.3753 48.1501 75.8544C 48.7506 75.2474 49.6099 74.8995 50.5065 74.8995C 51.1548 74.8995 51.7807 75.0807 52.3168 75.4231C 53.0128 75.8675 53.9673 75.7072 54.4492 75.0651L 93.7272 22.707C 94.2091 22.0649 94.0357 21.1835 93.3398 20.7389ZM 41.6615 61.5489C 41.6615 61.5489 39.3517 70.6329 39.3516 70.6336L 37.129 79.3747C 35.0588 79.4067 33.1465 80.402 32.0227 81.9599L 25.0509 80.4501C 24.7307 78.105 22.8529 76.1035 20.2736 75.5451C 17.7542 74.9995 15.0652 75.9905 13.6317 77.9774L 6.66014 76.4676C 6.40348 74.5888 5.14714 72.9302 3.33104 72.058L 16.1429 21.6715L 17.6352 21.9946C 17.7529 22.02 17.8704 22.0323 17.9866 22.0323C 18.6818 22.0323 19.3114 21.5923 19.4774 20.9407C 19.6707 20.1801 19.1594 19.419 18.3352 19.2406L 16.8433 18.9175L 18.4823 12.4719C 20.5525 12.4398 22.4646 11.4446 23.5886 9.88669L 30.5604 11.3965C 30.8805 13.7416 32.7582 15.7431 35.3375 16.3018C 37.8566 16.8472 40.5464 15.8562 41.9793 13.8697L 48.9511 15.3793C 48.9709 15.3839 49.0152 15.7503 49.024 15.7908C 49.1151 16.2075 49.2616 16.6272 49.4536 17.0192C 50.0299 18.1973 51.0351 19.1934 52.28 19.7896L 50.6407 26.2368L 49.1485 25.9137C 48.3262 25.7354 47.5 26.2069 47.3063 26.9675C 47.113 27.7281 47.6243 28.4892 48.4484 28.6676L 49.9403 28.9907L 47.5029 38.5768C 47.5029 38.5768 47.2367 39.6238 47.2365 39.6245L 45.4469 46.6627C 45.4467 46.6622 41.6615 61.5484 41.6615 61.5489ZM 86.359 27.5595L 85.0989 26.7542C 84.4032 26.3095 83.4482 26.4699 82.9664 27.1119C 82.4845 27.7542 82.658 28.6352 83.3542 29.08L 84.6142 29.8851L 52.6929 72.4352C 51.9982 72.1946 51.2598 72.0702 50.5058 72.0702C 49.212 72.0702 47.9571 72.4416 46.9143 73.1139L 42.5747 70.3413L 44.1321 64.2164L 50.9104 68.5471C 51.5989 68.9866 52.5663 68.8246 53.0429 68.1892L 72.7522 41.9171C 73.2341 41.2748 73.0606 40.3937 72.3648 39.949C 71.6688 39.5042 70.7141 39.6645 70.2322 40.3066L 51.3949 65.4161L 44.8845 61.2564L 47.8729 49.5039L 53.256 47.7636L 56.7434 51.9876C 57.0392 52.3457 57.4937 52.5448 57.9628 52.5448C 58.1321 52.5448 58.3032 52.5191 58.4693 52.4652C 59.0959 52.2627 59.5101 51.7109 59.4949 51.098L 59.3636 45.7893L 64.7943 44.0338C 65.4209 43.8313 65.8351 43.2795 65.8199 42.6668C 65.8048 42.0543 65.364 41.5203 64.7279 41.3442L 59.2162 39.8185L 59.0849 34.5094C 59.0699 33.8967 58.6291 33.3629 57.9929 33.1868C 57.3568 33.0108 56.6705 33.2329 56.2925 33.7366L 53.0175 38.1025L 50.9191 37.5217L 54.8647 22.0047L 56.7959 19.4304L 76.4648 31.9972L 73.7979 35.5526C 73.316 36.1949 73.4895 37.0759 74.1853 37.5207C 74.8813 37.9655 75.8358 37.805 76.3179 37.163C 76.3179 37.163 79.8453 32.461 79.8573 32.4452C 80.3313 31.8132 80.1516 30.9129 79.4699 30.4771C 79.4699 30.4771 57.3204 16.3256 57.2806 16.3C 56.5917 15.8598 55.624 16.023 55.148 16.6577L 54.4828 17.5445C 54.4644 17.5399 54.4468 17.5339 54.4283 17.5299C 53.6726 17.3657 53.0017 16.9457 52.5549 16.3605C 52.5516 16.3562 52.5488 16.3517 52.5455 16.3473L 56.0707 11.6483C 56.0707 11.6483 57.3305 12.4531 57.3305 12.4534C 57.9999 12.881 58.981 12.738 59.4631 12.0956C 59.9451 11.4534 59.7716 10.5722 59.0758 10.1274L 57.8157 9.32231L 61.8991 3.87934C 62.5938 4.11994 63.3324 4.2443 64.0864 4.2443C 65.3802 4.2443 66.6348 3.8729 67.6777 3.20043L 73.5646 6.9618C 72.9319 9.25217 73.8842 11.7492 76.0628 13.1411C 78.1926 14.5022 81.0866 14.4922 83.2095 13.1238L 89.0964 16.8852C 88.5897 18.7201 89.1003 20.6882 90.4436 22.1138L 86.359 27.5595ZM 56.3233 46.8111C 56.3233 46.8111 55.0202 45.233 55.0196 45.232C 54.6223 44.751 53.9118 44.5543 53.2938 44.7544L 51.264 45.4104C 51.9321 44.5197 53.3807 43.2471 52.4473 42.1162L 51.1438 40.5371C 51.1438 40.5371 53.202 41.1069 53.2042 41.1074C 54.6407 41.5049 55.4691 39.805 56.1287 38.9258C 56.1287 38.9258 56.1777 40.9083 56.1777 40.9102C 56.2119 42.29 58.2272 42.4977 59.3298 42.803L 57.2999 43.4591C 56.6732 43.6616 56.2591 44.2136 56.2743 44.8264L 56.3233 46.8111Z"/>
</defs>
</svg>
