<svg width="101" height="94" viewBox="0 0 101 94" version="1.1" xmlns="http://www.w3.org/2000/svg" xmlns:xlink="http://www.w3.org/1999/xlink">
<title>ticketfront</title>
<desc>Created using Figma</desc>
<g id="Canvas" transform="translate(-1324 -86)">
<g id="ticketfront">
<g id="Group">
<g id="Group">
<g id="Vector">
<use xlink:href="#path0_fill" transform="translate(1360.13 86)" fill="#253237"/>
</g>
</g>
</g>
<g id="Group">
<g id="Group">
<g id="Vector">
<use xlink:href="#path1_fill" transform="translate(1324 109.107)" fill="#253237"/>
</g>
</g>
</g>
<g id="Group">
<g id="Group">
<g id="Vector">
<use xlink:href="#path2_fill" transform="translate(1339.1 116.303)" fill="#253237"/>
</g>
</g>
</g>
<g id="Group">
<g id="Group">
<g id="Vector">
<use xlink:href="#path3_fill" transform="translate(1345.85 126.281)" fill="#253237"/>
</g>
</g>
</g>
<g id="Group">
<g id="Group">
<g id="Vector">
<use xlink:href="#path4_fill" transform="translate(1357.09 126.281)" fill="#253237"/>
</g>
</g>
</g>
<g id="Group">
<g id="Group">
<g id="Vector">
<use xlink:href="#path5_fill" transform="translate(1361.84 126.281)" fill="#253237"/>
</g>
</g>
</g>
<g id="Group">
<g id="Group">
<g id="Vector">
<use xlink:href="#path6_fill" transform="translate(1372.71 126.281)" fill="#253237"/>
</g>
</g>
</g>
<g id="Group">
<g id="Group">
<g id="Vector">
<use xlink:href="#path7_fill" transform="translate(1383.48 126.281)" fill="#253237"/>
</g>
</g>
</g>
<g id="Group">
<g id="Group">
<g id="Vector">
<use xlink:href="#path8_fill" transform="translate(1392.89 126.281)" fill="#253237"/>
</g>
</g>
</g>
</g>
</g>
<defs>
<path id="path0_fill" d="M 63.374 49.0504L 61.4422 49.0504C 59.8238 49.0504 58.5073 47.6987 58.5073 46.0371C 58.5073 44.3755 59.8236 43.0238 61.442 43.0238L 63.3738 43.0238C 64.1998 43.0238 64.8689 42.3368 64.8689 41.4888L 64.8689 32.2796C 64.8689 31.4315 64.1998 30.7446 63.3738 30.7446L 61.442 30.7446C 59.8236 30.7446 58.5071 29.3928 58.5071 27.7312L 58.5071 27.1731L 60.7001 25.1107C 61.2947 24.5515 61.3503 23.6089 60.8258 22.98L 54.9897 15.9867C 54.7316 15.6774 54.3645 15.4862 53.9692 15.455C 53.5731 15.421 53.1823 15.5551 52.8817 15.8198L 51.4146 17.1106C 50.1857 18.1915 48.329 18.0444 47.2762 16.7829C 46.7661 16.1718 46.5183 15.3931 46.5787 14.5904C 46.6388 13.788 46.9998 13.0576 47.5954 12.5339L 49.0624 11.2431C 49.6895 10.6916 49.7623 9.72252 49.225 9.07887L 43.3887 2.08577C 42.8517 1.44232 41.9078 1.36718 41.2807 1.91888L 39.8135 3.20943C 39.2181 3.73318 38.46 3.98797 37.6783 3.92559C 36.8967 3.86382 36.1854 3.49318 35.6752 2.88173L 33.718 0.53618C 33.4599 0.22691 33.0928 0.0357183 32.6975 0.00452801C 32.3008 -0.0266622 31.9108 0.104175 31.61 0.369292L 5.76291 23.1074L 1.49507 23.1074C 0.669125 23.1074 -6.74247e-07 23.7944 -6.74247e-07 24.6424C -6.74247e-07 25.4904 0.669125 26.1774 1.49507 26.1774L 55.5171 26.1774L 55.5171 27.7312C 55.5171 31.0856 58.1751 33.8146 61.4422 33.8146L 61.879 33.8146L 61.879 39.9538L 61.4422 39.9538C 58.1751 39.9538 55.5171 42.6827 55.5171 46.0371C 55.5171 49.3915 58.1751 52.1204 61.4422 52.1204L 61.879 52.1204L 61.879 58.2596L 61.4422 58.2596C 58.1751 58.2596 55.5171 60.9884 55.5171 64.3427L 55.5171 67.8227L 45.1797 67.8227C 44.3537 67.8227 43.6846 68.5097 43.6846 69.3577C 43.6846 70.2057 44.3537 70.8927 45.1797 70.8927L 57.0122 70.8927C 57.8382 70.8927 58.5073 70.2057 58.5073 69.3577L 58.5073 64.3427C 58.5073 62.6813 59.8238 61.3296 61.4422 61.3296L 63.374 61.3296C 64.2 61.3296 64.8691 60.6426 64.8691 59.7946L 64.8691 50.5854C 64.8691 49.7374 64.2 49.0504 63.374 49.0504ZM 10.3586 23.1074L 32.42 3.69976L 33.4045 4.87973C 34.434 6.11377 35.8703 6.86213 37.4482 6.98689C 39.026 7.11145 40.5569 6.59843 41.7589 5.5412L 42.0909 5.24935L 45.9815 9.91108L 45.6497 10.2031C 43.1689 12.3854 42.8797 16.2334 45.0057 18.7807C 47.1316 21.3277 50.8794 21.6244 53.3601 19.4419L 53.6919 19.1499L 56.9947 23.1074L 10.3586 23.1074Z"/>
<path id="path1_fill" d="M 68.1879 44.7153L 9.35215 44.7153L 9.35215 43.1616C 9.35215 39.8073 6.6942 37.0783 3.42709 37.0783L 2.99015 37.0783L 2.99015 30.9391L 3.42709 30.9391C 6.6942 30.9391 9.35215 28.2102 9.35215 24.8558C 9.35215 21.5014 6.6942 18.7725 3.42709 18.7725L 2.99015 18.7725L 2.99015 12.6333L 3.42709 12.6333C 6.6942 12.6333 9.35215 9.90432 9.35215 6.54995L 9.35215 3.07001L 26.4142 3.07001C 27.2402 3.07001 27.9093 2.38302 27.9093 1.53501C 27.9093 0.686996 27.2402 1.18672e-06 26.4142 1.18672e-06L 7.85708 1.18672e-06C 7.03113 1.18672e-06 6.362 0.686996 6.362 1.53501L 6.362 6.54995C 6.362 8.21134 5.04545 9.56326 3.42709 9.56326L 1.49507 9.56326C 0.669124 9.56326 0 10.2503 0 11.0983L 0 20.3075C 0 21.1555 0.669124 21.8425 1.49507 21.8425L 3.42709 21.8425C 5.04526 21.8425 6.362 23.1942 6.362 24.8558C 6.362 26.5174 5.04545 27.8691 3.42709 27.8691L 1.49507 27.8691C 0.669124 27.8691 0 28.5561 0 29.4041L 0 38.6133C 0 39.4613 0.669124 40.1483 1.49507 40.1483L 3.42709 40.1483C 5.04526 40.1483 6.362 41.5001 6.362 43.1616L 6.362 43.9916L 4.24969 45.7115C 3.9311 45.9708 3.7293 46.352 3.69024 46.767C 3.65138 47.1821 3.77881 47.5961 4.04335 47.9129L 9.87924 54.9062C 10.1373 55.2155 10.5044 55.4067 10.8997 55.4378C 11.295 55.4717 11.6864 55.338 11.9872 55.0731L 13.4545 53.7823C 14.0498 53.2584 14.8081 53.0024 15.5897 53.0662C 16.3712 53.1279 17.0826 53.4986 17.5927 54.11C 18.6457 55.3718 18.5025 57.2779 17.2735 58.359L 15.8065 59.6495C 15.1794 60.201 15.1066 61.1702 15.6439 61.8138L 21.4798 68.8071C 22.017 69.451 22.9609 69.5261 23.5878 68.974L 25.0551 67.6835C 25.6502 67.1597 26.4109 66.9047 27.1903 66.9673C 27.9718 67.0291 28.6832 67.3997 29.1933 68.0112L 31.1506 70.3565C 31.4463 70.7107 31.8652 70.8928 32.2866 70.8928C 32.6308 70.8928 32.9766 70.7715 33.2585 70.5234L 59.06 47.8256C 59.0744 47.8128 59.0869 47.7991 59.1009 47.7859L 68.1871 47.7859C 69.013 47.7859 69.6822 47.0989 69.6822 46.2509C 69.6822 45.4029 69.0138 44.7153 68.1879 44.7153ZM 32.4491 67.1929L 31.4646 66.0132C 30.4351 64.7791 28.999 64.0308 27.4209 63.906C 25.8429 63.7802 24.3122 64.2945 23.1102 65.3517L 22.7782 65.6435L 18.8876 60.9816L 19.2194 60.6898C 20.4211 59.6325 21.1502 58.1581 21.2717 56.5378C 21.3932 54.9177 20.8933 53.3459 19.8636 52.112C 18.8341 50.878 17.398 50.1296 15.8199 50.0049C 14.2424 49.8819 12.7112 50.3935 11.5092 51.4506L 11.1774 51.7426L 7.87443 47.7851L 54.5103 47.7851L 32.4491 67.1929Z"/>
<path id="path2_fill" d="M 69.3143 -7.16979e-07L 26.7263 -7.16979e-07C 25.9003 -7.16979e-07 25.2312 0.686997 25.2312 1.53501C 25.2312 2.38302 25.9003 3.07001 26.7263 3.07001L 67.8192 3.07001L 67.8192 30.323L 2.99015 30.323L 2.99015 3.07001L 15.2999 3.07001C 16.1258 3.07001 16.795 2.38302 16.795 1.53501C 16.795 0.686997 16.1258 -7.16979e-07 15.2999 -7.16979e-07L 1.49507 -7.16979e-07C 0.669123 -7.16979e-07 5.17725e-07 0.6872 5.17725e-07 1.53501L 5.17725e-07 31.858C 5.17725e-07 32.706 0.669123 33.393 1.49507 33.393L 69.3145 33.393C 70.1404 33.393 70.8095 32.706 70.8095 31.858L 70.8095 1.53501C 70.8093 0.686997 70.1402 -7.16979e-07 69.3143 -7.16979e-07Z"/>
<path id="path3_fill" d="M 9.05665 -8.40596e-07L 0.800305 -8.40596e-07C 0.253683 -8.40596e-07 2.04682e-07 0.601323 2.04682e-07 1.16234C 2.04682e-07 1.80357 0.292742 2.34474 0.800305 2.34474L 3.66973 2.34474L 3.66973 13.8276C 3.66973 14.3688 4.29447 14.6493 4.93834 14.6493C 5.56308 14.6493 6.20715 14.3688 6.20715 13.8276L 6.20715 2.34474L 9.05684 2.34474C 9.56441 2.34474 9.85715 1.78351 9.85715 1.16234C 9.85695 0.601323 9.60327 -8.40596e-07 9.05665 -8.40596e-07Z"/>
<path id="path4_fill" d="M 1.26861 -8.40596e-07C 0.624543 -8.40596e-07 9.63209e-07 0.240407 9.63209e-07 0.801427L 9.63209e-07 13.8276C 9.63209e-07 14.3688 0.624543 14.6493 1.26861 14.6493C 1.89335 14.6493 2.53723 14.3688 2.53723 13.8276L 2.53723 0.801427C 2.53723 0.240407 1.89335 -8.40596e-07 1.26861 -8.40596e-07Z"/>
<path id="path5_fill" d="M 7.86615 9.5193C 7.20255 9.5193 6.65593 9.71981 6.61687 10.341C 6.55828 11.1827 6.40224 12.4852 4.62607 12.4852C 3.27934 12.4852 2.53762 11.7437 2.53762 10.1806L 2.53762 4.58942C 2.53762 3.02626 3.27914 2.28458 4.58701 2.28458C 6.4411 2.28458 6.57781 3.64744 6.61707 4.26861C 6.6364 4.86993 7.16369 5.09029 7.88568 5.09029C 8.74437 5.09029 9.15449 4.84988 9.15449 3.80764C 9.15449 1.48275 7.22188 -6.18085e-07 4.50869 -6.18085e-07C 2.04939 -6.18085e-07 -7.94648e-07 1.24234 -7.94648e-07 4.58922L -7.94648e-07 10.1804C -7.94648e-07 13.5271 2.03006 14.7696 4.48936 14.7696C 7.22188 14.7696 9.15449 13.2265 9.15449 10.8016C 9.15449 9.77957 8.74437 9.5193 7.86615 9.5193Z"/>
<path id="path6_fill" d="M 9.52515 12.9861L 5.26994 6.33284L 8.7637 1.84367C 8.90021 1.66341 8.91974 1.48295 8.91974 1.3428C 8.91974 0.681325 8.09991 -8.40596e-07 7.45583 -8.40596e-07C 7.18282 -8.40596e-07 6.94847 0.100052 6.75338 0.380764L 2.53722 6.27248L 2.53722 0.801427C 2.53722 0.240407 1.89335 -8.40596e-07 1.26861 -8.40596e-07C 0.624541 -8.40596e-07 -6.74246e-07 0.240407 -6.74246e-07 0.801427L 0.000197988 0.801427L 0.000197988 13.8276C 0.000197988 14.3688 0.62474 14.6493 1.26881 14.6493C 1.89355 14.6493 2.53742 14.3688 2.53742 13.8276L 2.53742 9.89987L 3.59161 8.53722L 7.26113 14.2487C 7.47576 14.6092 7.80756 14.7495 8.13936 14.7495C 8.88108 14.7495 9.66166 14.0885 9.66166 13.4471C 9.66166 13.2868 9.6226 13.1264 9.52515 12.9861Z"/>
<path id="path7_fill" d="M 8.06125 12.3651L 2.53722 12.3651L 2.53722 8.33691L 5.50429 8.33691C 6.05092 8.33691 6.30459 7.79574 6.30459 7.33477C 6.30459 6.7936 6.01186 6.29253 5.50429 6.29253L 2.53722 6.29253L 2.53722 2.28459L 8.06125 2.28459C 8.56881 2.28459 8.86155 1.74341 8.86155 1.12224C 8.86155 0.581274 8.60767 8.15872e-07 8.06125 8.15872e-07L 1.11258 8.15872e-07C 0.546426 8.15872e-07 -1.20401e-06 0.280509 -1.20401e-06 0.82168L -1.20401e-06 13.8278C -1.20401e-06 14.369 0.546426 14.6495 1.11258 14.6495L 8.06125 14.6495C 8.60787 14.6495 8.86155 14.0684 8.86155 13.5273C 8.86155 12.9063 8.56881 12.3651 8.06125 12.3651Z"/>
<path id="path8_fill" d="M 9.05665 -8.40596e-07L 0.800307 -8.40596e-07C 0.253685 -8.40596e-07 6.74247e-07 0.601323 6.74247e-07 1.16234C 6.74247e-07 1.80357 0.292744 2.34474 0.800307 2.34474L 3.66973 2.34474L 3.66973 13.8276C 3.66973 14.3688 4.29446 14.6493 4.93834 14.6493C 5.56308 14.6493 6.20715 14.3688 6.20715 13.8276L 6.20715 2.34474L 9.05684 2.34474C 9.5644 2.34474 9.85715 1.78351 9.85715 1.16234C 9.85695 0.601323 9.60327 -8.40596e-07 9.05665 -8.40596e-07Z"/>
</defs>
</svg>
