<svg width="58" height="39" viewBox="0 0 58 39" version="1.1" xmlns="http://www.w3.org/2000/svg" xmlns:xlink="http://www.w3.org/1999/xlink">
<title>visa-pay-logo</title>
<desc>Created using Figma</desc>
<g id="Canvas" transform="translate(202 -2697)">
<g id="visa-pay-logo">
<g id="Group">
<g id="Group">
<g id="Vector">
<use xlink:href="#path0_fill" transform="translate(-201.131 2697.85)" fill="#FFFFFF"/>
</g>
<g id="Vector">
<use xlink:href="#path1_fill" transform="translate(-156.929 2713.48)" fill="#FFFFFF"/>
</g>
</g>
</g>
</g>
</g>
<defs>
<path id="path0_fill" d="M 55.0117 1.34727e-07L 1.45362 1.34727e-07C 0.64983 1.34727e-07 0 0.676232 0 1.51036L 0 36.5114C 0 37.3455 0.64983 38.0217 1.45362 38.0217L 55.0117 38.0217C 55.8154 38.0217 56.4653 37.3455 56.4653 36.5114L 56.4653 1.51036C 56.4653 0.676232 55.8154 1.34727e-07 55.0117 1.34727e-07ZM 4.37186 11.4897L 10.3983 11.4897C 11.2111 11.5219 11.8659 11.791 12.0918 12.6936L 13.4025 19.243C 12.1148 15.8172 9.01165 12.9668 4.32187 11.7868L 4.37186 11.4897ZM 11.664 26.4271L 8.18287 14.07C 10.6852 15.7341 12.8167 18.3746 13.5675 20.2122L 13.9734 21.7381L 17.7804 11.632L 21.8993 11.632L 15.7779 26.424L 11.664 26.4271ZM 24.9265 26.4395L 21.0395 26.4395L 23.4699 11.6185L 27.3589 11.6185L 24.9265 26.4395ZM 31.6907 26.6608C 29.9482 26.6421 28.2696 26.2837 27.3599 25.8693L 27.9067 22.5525L 28.4076 22.7883C 29.6843 23.342 30.511 23.5663 32.0676 23.5663C 33.1843 23.5663 34.381 23.1124 34.392 22.1193C 34.399 21.4701 33.8912 21.0068 32.3776 20.2797C 30.9019 19.5713 28.9484 18.3829 28.9724 16.2545C 28.9934 13.374 31.7007 11.364 35.5427 11.364C 37.0483 11.364 38.255 11.686 39.0248 11.9862L 38.5 15.1981L 38.149 15.0267C 37.4332 14.7275 36.5125 14.4388 35.2398 14.4595C 33.7182 14.4595 33.0124 15.1181 33.0124 15.7341C 33.0044 16.428 33.8362 16.885 35.1958 17.5727C 37.4382 18.6302 38.475 19.913 38.461 21.5989C 38.431 24.6737 35.7787 26.6608 31.6907 26.6608ZM 48.5363 26.4447C 48.5363 26.4447 48.1814 24.7412 48.0635 24.2239C 47.4976 24.2239 43.5306 24.2176 43.0848 24.2176C 42.9338 24.6176 42.268 26.4447 42.268 26.4447L 38.186 26.4447L 43.9575 12.863C 44.3674 11.898 45.0622 11.6331 45.994 11.6331L 48.9972 11.6331L 52.1434 26.4437L 48.5363 26.4447Z"/>
<path id="path1_fill" d="M 2.06546 6.34009e-07C 1.86751 0.557815 1.5266 1.45426 1.5486 1.41479C 1.5486 1.41479 0.319917 4.70454 7.01721e-07 5.55736L 3.22816 5.55736C 3.0722 4.81569 2.32739 1.27767 2.32739 1.27767L 2.06546 6.34009e-07Z"/>
</defs>
</svg>
