<svg width="1279" height="353" viewBox="0 0 1279 353" version="1.1" xmlns="http://www.w3.org/2000/svg" xmlns:xlink="http://www.w3.org/1999/xlink">
<title>whatsincluded</title>
<desc>Created using Figma</desc>
<g id="Canvas" transform="translate(705 -292)">
<g id="whatsincluded">
<g id="cloud">
<g id="Vector">
<use xlink:href="#path0_fill" transform="translate(467.677 292)" fill="#000000" fill-opacity="0.07"/>
</g>
</g>
<g id="howtouse_background">
<g id="bridge">
<g id="Group">
<g id="Vector">
<use xlink:href="#path1_fill" transform="translate(257 583)" fill="#D9D9D9" fill-opacity="0.36"/>
</g>
</g>
</g>
<g id="city">
<g id="Group">
<g id="Vector">
<use xlink:href="#path2_fill" transform="translate(397.892 508)" fill="#D9D9D9" fill-opacity="0.36"/>
</g>
</g>
</g>
</g>
<g id="Group">
<g id="Vector">
<use xlink:href="#path3_fill" transform="matrix(-1 0 0 1 -448 491)" fill="#030104" fill-opacity="0.04"/>
</g>
</g>
</g>
</g>
<defs>
<path id="path0_fill" d="M 51.2423 18.2183C 50.7105 8.09325 43.2528 0 34.2631 0C 28.8047 0 23.5192 2.99587 20.2442 7.884C 20.1688 7.84012 20.0894 7.80975 20.013 7.76925C 19.814 7.66125 19.6119 7.55887 19.4059 7.46662C 19.2913 7.416 19.1767 7.36987 19.0611 7.32487C 18.857 7.245 18.6499 7.17412 18.4388 7.11C 18.3232 7.07512 18.2086 7.03913 18.092 7.00988C 17.8658 6.9525 17.6346 6.90863 17.4014 6.86925C 17.2999 6.85238 17.2004 6.82987 17.0979 6.8175C 16.7641 6.77587 16.4264 6.75 16.0836 6.75C 11.0947 6.75 7.03657 11.2916 7.03657 16.875C 7.03657 17.0179 7.04461 17.1585 7.05265 17.2991L 7.05265 17.3036C 2.87193 19.8551 0 25.1989 0 30.5482C 0 38.5166 5.7921 45 12.9121 45L 37.5481 45C 37.6527 45 37.7562 44.9933 37.8608 44.9842L 37.9231 44.9753L 38.0578 44.9842C 38.1603 44.9933 38.2629 45 38.3684 45L 48.2226 45C 54.8893 45 60.3135 38.9295 60.3135 31.4685C 60.3135 25.2934 56.4665 19.755 51.2423 18.2183ZM 48.2226 42.75L 38.3684 42.75C 38.3091 42.75 38.2518 42.7444 38.1935 42.7399L 37.9211 42.7275L 37.722 42.7399C 37.6647 42.7444 37.6064 42.75 37.5481 42.75L 12.9121 42.75C 6.90086 42.75 2.01045 37.2769 2.01045 30.5482C 2.01045 25.875 4.72958 21.024 8.47706 19.0136L 9.04702 18.7087L 9.04702 18C 9.04702 17.8571 9.05506 17.712 9.0621 17.5658L 9.07114 17.3857L 9.05908 17.1495C 9.05305 17.0584 9.04702 16.9673 9.04702 16.875C 9.04702 12.5336 12.2044 9 16.0836 9C 16.3942 9 16.7008 9.03037 17.0054 9.07537C 17.0838 9.08662 17.1622 9.10125 17.2396 9.11588C 17.508 9.16538 17.7724 9.23063 18.0327 9.315C 18.0679 9.32625 18.1041 9.33412 18.1393 9.34537C 18.4258 9.44325 18.7052 9.567 18.9786 9.7065C 19.05 9.7425 19.1194 9.78187 19.1897 9.82013C 19.431 9.954 19.6672 10.1003 19.8954 10.2656C 21.8325 11.6696 23.1202 14.1053 23.1202 16.875C 23.1202 17.4971 23.5695 18 24.1254 18C 24.6813 18 25.1306 17.4971 25.1306 16.875C 25.1306 13.7767 23.8781 11.0036 21.9139 9.14512C 24.7959 4.92637 29.5415 2.25 34.2631 2.25C 42.0485 2.25 48.5141 9.15188 49.1886 17.874C 48.1613 17.793 46.6233 17.7514 45.0843 18.0135C 44.5355 18.1069 44.1585 18.6806 44.2419 19.2949C 44.3173 19.8517 44.7455 20.2511 45.2341 20.2511C 45.2843 20.2511 45.3356 20.2466 45.3859 20.2376C 47.6245 19.8585 49.9576 20.214 50.0943 20.2354C 54.7747 21.231 58.303 26.0561 58.303 31.4685C 58.303 37.6886 53.7805 42.75 48.2226 42.75Z"/>
<path id="path1_fill" d="M 143 19.7288C 143 18.2844 141.956 17.1141 140.667 17.1141L 138.373 17.1141L 138.373 11.9698L 140.667 11.9698C 141.956 11.9698 143 10.7994 143 9.35506C 143 7.9107 141.956 6.74036 140.667 6.74036L 138.373 6.74036L 138.373 2.6147C 138.373 1.17034 137.328 -2.12785e-07 136.039 -2.12785e-07C 134.75 -2.12785e-07 133.706 1.17034 133.706 2.6147L 133.706 6.74036L 73.8338 6.74036L 73.8338 2.6147C 73.8338 1.17034 72.7893 -2.12785e-07 71.5003 -2.12785e-07C 70.2113 -2.12785e-07 69.1669 1.17034 69.1669 2.6147L 69.1669 6.74036L 9.29397 6.74036L 9.29397 2.6147C 9.29397 1.17034 8.24952 -2.12785e-07 6.96052 -2.12785e-07C 5.67153 -2.12785e-07 4.62707 1.17034 4.62707 2.6147L 4.62707 6.74036L 2.33345 6.74036C 1.04445 6.74036 0 7.9107 0 9.35506C 0 10.7994 1.04445 11.9698 2.33345 11.9698L 4.62707 11.9698L 4.62707 17.1141L 2.33345 17.1141C 1.04445 17.1141 0 18.2844 0 19.7288L 0 59.3817C 0 60.8239 1.04196 61.9936 2.32878 61.9964C 2.32878 61.9964 6.49881 62.0058 8.77813 61.9943C 9.2137 61.9922 9.58177 61.9894 9.84062 61.9859C 9.98499 61.9835 10.0989 61.981 10.177 61.9786C 11.7148 61.9263 12.5446 60.5893 12.5446 59.3573C 12.5446 49.9726 19.3583 42.3376 27.7338 42.3376C 36.109 42.3376 42.9227 49.9726 42.9227 59.3573C 42.9227 60.5865 43.7488 61.9228 45.2795 61.9782C 45.3526 61.9807 53.8809 61.9807 53.9537 61.9782C 55.4844 61.9232 56.3105 60.5869 56.3105 59.3573C 56.3105 49.9726 63.1242 42.3376 71.4997 42.3376C 79.8749 42.3376 86.6886 49.9726 86.6886 59.3573C 86.6886 60.5865 87.5146 61.9228 89.0454 61.9782C 89.1185 61.9807 97.6468 61.9807 97.7196 61.9782C 99.2503 61.9232 100.076 60.5869 100.076 59.3573C 100.076 49.9726 106.89 42.3376 115.266 42.3376C 123.641 42.3376 130.454 49.9726 130.454 59.3573C 130.454 60.589 131.284 61.926 132.822 61.9786C 132.9 61.9814 140.67 61.9964 140.67 61.9964C 141.957 61.9939 142.999 60.8243 142.999 59.382L 142.999 19.7288L 143 19.7288ZM 138.333 22.3435L 138.333 38.2643C 132.784 30.6405 124.41 26.0459 115.291 26.0459C 106.852 26.0459 99.0201 29.93 93.3946 36.8046C 87.7713 29.9293 79.9402 26.0459 71.5 26.0459C 63.0598 26.0459 55.2287 29.93 49.6054 36.8046C 43.9799 29.9296 36.1479 26.0459 27.7089 26.0459C 18.5898 26.0459 10.2162 30.6405 4.66659 38.2643L 4.66659 22.3435L 138.333 22.3435ZM 48.0177 17.1141L 48.0177 11.9698L 56.2585 11.9698L 56.2585 17.1141L 48.0177 17.1141ZM 43.3508 17.1141L 35.11 17.1141L 35.11 11.9698L 43.3508 11.9698L 43.3508 17.1141ZM 30.4431 17.1141L 22.202 17.1141L 22.202 11.9698L 30.4428 11.9698L 30.4431 17.1141ZM 112.557 17.1141L 112.557 11.9698L 120.798 11.9698L 120.798 17.1141L 112.557 17.1141ZM 107.89 17.1141L 99.6492 17.1141L 99.6492 11.9698L 107.89 11.9698L 107.89 17.1141ZM 94.9823 17.1141L 86.7415 17.1141L 86.7415 11.9698L 94.9823 11.9698L 94.9823 17.1141ZM 133.706 17.1141L 125.465 17.1141L 125.465 11.9698L 133.706 11.9698L 133.706 17.1141ZM 82.0746 11.9698L 82.0746 17.1141L 73.8338 17.1141L 73.8338 11.9698L 82.0746 11.9698ZM 69.1669 17.1141L 60.9257 17.1141L 60.9257 11.9698L 69.1669 11.9698L 69.1669 17.1141ZM 9.29397 11.9698L 17.5351 11.9698L 17.5351 17.1141L 9.29397 17.1141L 9.29397 11.9698ZM 134.988 56.768C 133.841 45.7144 125.434 37.1079 115.266 37.1079C 105.098 37.1079 96.6904 45.7155 95.5432 56.7698C 94.9369 56.7722 91.829 56.7722 91.2223 56.7698C 90.0752 45.7155 81.6679 37.1079 71.4997 37.1079C 61.3315 37.1079 52.9239 45.7155 51.7768 56.7698C 51.1704 56.7722 48.0625 56.7722 47.4558 56.7698C 46.3087 45.7155 37.9014 37.1079 27.7332 37.1079C 17.5656 37.1079 9.15863 45.7144 8.01058 56.768C 7.42815 56.7694 5.00354 56.7705 4.66597 56.7701L 4.66597 48.2639C 8.63843 37.9285 17.6325 31.2753 27.7083 31.2753C 35.648 31.2753 42.9501 35.3529 47.7436 42.4631C 48.1848 43.1175 48.8743 43.5017 49.6057 43.5017C 50.3378 43.5017 51.0266 43.1168 51.4675 42.4624C 56.2576 35.3529 63.5588 31.2753 71.4994 31.2753C 79.44 31.2753 86.7408 35.3529 91.5313 42.4624C 91.9721 43.1168 92.6613 43.5017 93.393 43.5017L 93.3934 43.5017C 94.1251 43.5017 94.8143 43.1172 95.2551 42.4631C 100.048 35.3529 107.351 31.2753 115.29 31.2753C 125.366 31.2753 134.36 37.9285 138.332 48.2639L 138.332 56.7701C 137.996 56.7705 135.571 56.7694 134.988 56.768Z"/>
<path id="path2_fill" d="M 174.288 133.309L 170.905 133.309L 170.905 111.998C 170.905 110.228 169.642 108.793 168.085 108.793L 150.04 108.793L 150.04 61.7017C 150.04 60.7988 149.705 59.9378 149.117 59.3302L 144.749 54.8167L 144.749 10.8957C 144.749 9.88001 144.325 8.92459 143.607 8.31997L 134.467 0.62912C 133.612 -0.0908685 132.472 -0.201964 131.521 0.342835C 130.57 0.887206 129.97 1.99432 129.97 3.20484L 129.97 42.5004L 125.813 48.1693C 125.391 48.7453 125.16 49.4713 125.16 50.2207L 125.16 94.6464L 122.141 94.6464L 122.141 71.655C 122.141 69.8852 120.878 68.4503 119.321 68.4503L 106.133 68.4503L 106.133 39.6076C 106.133 37.8378 104.871 36.4029 103.313 36.4029L 90.0629 36.4029C 88.5057 36.4029 87.2432 37.8378 87.2432 39.6076L 87.2432 57.4035L 84.6013 57.4035L 84.6013 27.2597C 84.6013 25.4899 83.3389 24.055 81.7816 24.055L 68.5312 24.055C 66.974 24.055 65.7115 25.4899 65.7115 27.2597L 65.7115 87.4722L 54.788 87.4722L 54.788 47.4878C 54.788 45.7179 53.5255 44.2831 51.9683 44.2831L 39.5458 44.2831C 37.9885 44.2831 36.7261 45.7179 36.7261 47.4878L 36.7261 71.0714L 28.8888 71.0714C 27.3315 71.0714 26.0691 72.5062 26.0691 74.2761L 26.0691 122.735L 22.5955 122.735L 22.5955 89.0869C 22.5955 87.317 21.3331 85.8822 19.7758 85.8822L 10.7531 85.8822C 9.19591 85.8822 7.93343 87.317 7.93343 89.0869L 7.93343 133.31L 3.42227 133.31C 1.86504 133.31 0.608056 135.23 0.608056 137C -1.39194 137 2.05082 137 3.60806 137L 10.6081 137C 12.1653 137 15.6081 137 13.6081 137L 13.5729 92.2912L 16.9561 92.2912L 16.9561 125.939C 16.9561 127.709 18.2186 129.143 19.7758 129.143L 26.0691 129.143L 26.0691 131.386C 26.0691 133.156 27.3315 134.591 28.8888 134.591C 30.446 134.591 31.7085 133.156 31.7085 131.386L 31.7085 77.4803L 36.7261 77.4803L 36.7261 81.3956C 36.7261 83.1655 37.9885 84.6003 39.5458 84.6003C 41.103 84.6003 42.3655 83.1655 42.3655 81.3956L 42.3655 50.6925L 49.1486 50.6925L 49.1486 87.4722L 42.8967 87.4722C 41.3395 87.4722 40.077 88.907 40.077 90.6768L 40.077 121.132C 40.077 122.902 41.3395 124.337 42.8967 124.337C 44.4539 124.337 45.7164 122.902 45.7164 121.132L 45.7164 93.8816L 65.7119 93.8816L 65.7119 105.75C 65.7119 107.52 66.9744 108.955 68.5316 108.955C 70.0889 108.955 71.3513 107.52 71.3513 105.75L 71.3513 30.4644L 78.9623 30.4644L 78.9623 71.7824C 78.9623 73.5522 80.2248 74.9871 81.782 74.9871C 83.3392 74.9871 84.6017 73.5522 84.6017 71.7824L 84.6017 63.8134L 90.0633 63.8134C 91.6205 63.8134 92.883 62.3785 92.883 60.6087L 92.883 42.8123L 100.494 42.8123L 100.494 68.4503L 91.3931 68.4503C 89.8358 68.4503 88.5734 69.8852 88.5734 71.655L 88.5734 91.6498L 82.3704 91.6498C 80.8132 91.6498 79.5507 93.0846 79.5507 94.8545L 79.5507 120.491C 79.5507 122.261 80.8132 123.695 82.3704 123.695C 83.9276 123.695 85.1901 122.261 85.1901 120.491L 85.1901 98.0592L 98.724 98.0592L 98.724 137C 96.1081 137 98.724 137 101.108 137C 102.665 137 109.108 137 104.363 137L 104.363 94.8549C 104.363 93.0851 103.101 91.6502 101.544 91.6502L 94.2128 91.6502L 94.2128 74.8602L 116.502 74.8602L 116.502 114.723C 116.502 116.493 117.764 117.928 119.321 117.928C 120.879 117.928 122.141 116.493 122.141 114.723L 122.141 101.057L 125.16 101.057L 125.16 105.75C 125.16 107.52 126.423 108.955 127.98 108.955C 129.537 108.955 130.799 107.52 130.799 105.75L 130.799 51.3817L 134.956 45.7128C 135.378 45.1368 135.61 44.4108 135.61 43.6614L 135.61 9.56553L 139.11 12.5109L 139.11 56.2353C 139.11 57.1382 139.445 57.9992 140.033 58.6068L 144.401 63.1203L 144.401 121.133C 144.401 122.903 145.663 124.338 147.221 124.338C 148.778 124.338 150.04 122.903 150.04 121.133L 150.04 115.204L 165.266 115.204L 165.108 137C 162.45 137 166.551 137 168.108 137L 174.288 137C 175.845 137 176.108 137 176.108 136.5C 176.108 134.73 175.845 133.309 174.288 133.309Z"/>
<path id="path3_fill" d="M 252.909 1.84029L 192.21 76.2834C 189.962 79.0455 185.549 79.4937 182.412 77.2824L 153.054 56.5912C 149.915 54.3799 145.397 54.7767 143.021 57.4777L 101.811 104.274C 99.4355 106.973 94.8856 107.397 91.7072 105.218L 72.5108 92.0388C 69.3324 89.8591 64.5281 90.1394 61.8375 92.6646L 1.39793 149.406C -1.29532 151.931 0.0237713 154 4.31672 154L 257 154L 257 2.71296C 257 -0.526962 255.156 -0.923806 252.909 1.84029Z"/>
</defs>
</svg>
